<svg xmlns="http://www.w3.org/2000/svg" xmlns:xlink="http://www.w3.org/1999/xlink" width="62" height="69" viewBox="0 0 62 69">
  <defs>
    <filter id="Polígono_1" x="0" y="0" width="62" height="69" filterUnits="userSpaceOnUse">
      <feOffset dy="1" input="SourceAlpha"/>
      <feGaussianBlur stdDeviation="2" result="blur"/>
      <feFlood flood-opacity="0.161"/>
      <feComposite operator="in" in2="blur"/>
      <feComposite in="SourceGraphic"/>
    </filter>
    <filter id="Polígono_1-2" x="0" y="0" width="62" height="69" filterUnits="userSpaceOnUse">
      <feOffset dy="3" input="SourceAlpha"/>
      <feGaussianBlur stdDeviation="3" result="blur-2"/>
      <feFlood flood-opacity="0.49" result="color"/>
      <feComposite operator="out" in="SourceGraphic" in2="blur-2"/>
      <feComposite operator="in" in="color"/>
      <feComposite operator="in" in2="SourceGraphic"/>
    </filter>
    <filter id="Polígono_2" x="3" y="4" width="56" height="61" filterUnits="userSpaceOnUse">
      <feOffset dy="1" input="SourceAlpha"/>
      <feGaussianBlur stdDeviation="2" result="blur-3"/>
      <feFlood flood-opacity="0.161"/>
      <feComposite operator="in" in2="blur-3"/>
      <feComposite in="SourceGraphic"/>
    </filter>
  </defs>
  <g id="ganador_detalle" data-name="ganador detalle" transform="translate(6 5)">
    <g data-type="innerShadowGroup">
      <g transform="matrix(1, 0, 0, 1, -6, -5)" filter="url(#Polígono_1)">
        <path id="Polígono_1-3" data-name="Polígono 1" d="M42.75,0,57,25,42.75,50H14.25L0,25,14.25,0Z" transform="translate(56 5) rotate(90)" fill="#5a0000"/>
      </g>
      <g transform="matrix(1, 0, 0, 1, -6, -5)" filter="url(#Polígono_1-2)">
        <path id="Polígono_1-4" data-name="Polígono 1" d="M42.75,0,57,25,42.75,50H14.25L0,25,14.25,0Z" transform="translate(56 5) rotate(90)" fill="#fff"/>
      </g>
    </g>
    <g transform="matrix(1, 0, 0, 1, -6, -5)" filter="url(#Polígono_2)">
      <g id="Polígono_2-2" data-name="Polígono 2" transform="translate(53 9) rotate(90)" fill="none">
        <path d="M36.75,0,49,22,36.75,44H12.25L0,22,12.25,0Z" stroke="none"/>
        <path d="M 12.8377571105957 1 L 1.144577026367188 22 L 12.8377571105957 43 L 36.1622428894043 43 L 47.85542297363281 22 L 36.1622428894043 1 L 12.8377571105957 1 M 12.25 0 L 36.75 0 L 49 22 L 36.75 44 L 12.25 44 L 0 22 L 12.25 0 Z" stroke="none" fill="red"/>
      </g>
    </g>
    <g id="Grupo_43745" data-name="Grupo 43745" transform="translate(14.215 14.997)">
      <path id="Trazado_1217" data-name="Trazado 1217" d="M176.493,255.929v18.714l5.378,2.717v-11.7h10.816v8.982l5.378-2.656V250.354l-5.378,2.891v7.039H181.871v-1.459Z" transform="translate(-176.493 -250.354)" fill="red"/>
      <path id="Trazado_1218" data-name="Trazado 1218" d="M176.493,252.879v-2.525l5.378,2.872v2.548Z" transform="translate(-176.493 -250.354)" fill="red"/>
    </g>
    <path id="Trazado_20811" data-name="Trazado 20811" d="M563.975,530.822v16.726l1.625.891Z" transform="translate(-549.149 -508.666)" fill="#fff" opacity="0.4"/>
    <path id="Trazado_20812" data-name="Trazado 20812" d="M578.465,527.558v5.584l1.889-6.537Z" transform="translate(-547.304 -509.203)" fill="#fff" opacity="0.4"/>
    <path id="Trazado_20813" data-name="Trazado 20813" d="M6064.33,2573.929c-.241.08-20.23,11.439-20.23,11.439l20.23-10.248Z" transform="translate(-6040 -2572.614)" fill="#fff" opacity="0.4"/>
    <path id="Trazado_20814" data-name="Trazado 20814" d="M6089.555,2607.675l-.34,7.163-6.669,4.106,5.619-5.064Z" transform="translate(-6040 -2572.614)" fill="#fff" opacity="0.4"/>
  </g>
</svg>
