<svg xmlns="http://www.w3.org/2000/svg" xmlns:xlink="http://www.w3.org/1999/xlink" width="66" height="66" viewBox="0 0 66 66">
  <defs>
    <filter id="Elipse_137" x="0" y="0" width="66" height="66" filterUnits="userSpaceOnUse">
      <feOffset dy="3" input="SourceAlpha"/>
      <feGaussianBlur stdDeviation="3" result="blur"/>
      <feFlood flood-opacity="0.161"/>
      <feComposite operator="in" in2="blur"/>
      <feComposite in="SourceGraphic"/>
    </filter>
  </defs>
  <g id="medalla_otros_puntos" data-name="medalla otros puntos" transform="translate(9 6)">
    <g transform="matrix(1, 0, 0, 1, -9, -6)" filter="url(#Elipse_137)">
      <circle id="Elipse_137-2" data-name="Elipse 137" cx="24" cy="24" r="24" transform="translate(9 6)" fill="#00223b"/>
    </g>
    <g id="Elipse_138" data-name="Elipse 138" transform="translate(4 4)" fill="none" stroke="#0090ff" stroke-width="1">
      <circle cx="20" cy="20" r="20" stroke="none"/>
      <circle cx="20" cy="20" r="19.5" fill="none"/>
    </g>
    <path id="Trazado_20830" data-name="Trazado 20830" d="M1732.232,3879.167a24.623,24.623,0,0,1,5.921-5,32.283,32.283,0,0,1,7.872-2.978Z" transform="translate(-1725.917 -3869.625)" fill="#fff" opacity="0.4"/>
    <path id="Trazado_20831" data-name="Trazado 20831" d="M0,7.976a24.623,24.623,0,0,1,5.921-5A32.283,32.283,0,0,1,13.793,0Z" transform="translate(41.78 46.29) rotate(180)" fill="#fff" opacity="0.4"/>
    <path id="Trazado_20834" data-name="Trazado 20834" d="M11.568,4V5.849a9.487,9.487,0,0,0-3.5-.67A9.341,9.341,0,0,0,1.44,7.925L5.9,12.386H7.388v1.487a6.262,6.262,0,0,0,4.166,1.822v3.041H7.549v4.019a2.687,2.687,0,0,0,2.679,2.679h13.4a4.013,4.013,0,0,0,4.019-4.019V4Zm-1.487,8.587V9.707H7.026L5.633,8.314a6.792,6.792,0,0,1,2.438-.455,6.689,6.689,0,0,1,4.742,1.956L14.7,11.7l-.268.268a3.618,3.618,0,0,1-2.572,1.072A3.709,3.709,0,0,1,10.081,12.587Zm14.883,8.828a1.34,1.34,0,1,1-2.679,0V18.736H14.247v-3.47a6.241,6.241,0,0,0,2.09-1.38l.268-.268L20.4,17.4h1.889V15.507l-8.038-8V6.679H24.964Z" transform="translate(6.883 9.283)" fill="#0090ff" stroke="#00223b" stroke-width="1"/>
    <path id="Trazado_20835" data-name="Trazado 20835" d="M15.447,28.965c-.145-.84-.319,4.519,1.159,4.606s-.376-2.172-.376-2.172A17.161,17.161,0,0,1,15.447,28.965Z" fill="#fff" opacity="0.4"/>
    <path id="Trazado_20836" data-name="Trazado 20836" d="M30.806,14.02s2.986-.022,2.941.178-.178,6.907-.178,6.907l-.624-6.261Z" fill="#fff" opacity="0.4"/>
  </g>
</svg>
