<svg id="logo_cabi_color" data-name="logo / cabi / color" xmlns="http://www.w3.org/2000/svg" width="56" height="23.665" viewBox="0 0 56 23.665">
  <g id="Grupo_43668" data-name="Grupo 43668" transform="translate(21.759 4.423)">
    <path id="Trazado_15766" data-name="Trazado 15766" d="M453.057,449.443A5.229,5.229,0,0,1,458.434,444a4.793,4.793,0,0,1,4.768,3.287c.135.414-.09.677-.519.677h-1.813a.707.707,0,0,1-.692-.474,1.865,1.865,0,0,0-1.692-1.015c-1.564,0-2.557,1.279-2.557,2.971a2.763,2.763,0,0,0,2.708,2.978,3.5,3.5,0,0,0,2.723-1.188.563.563,0,0,1,.842-.1l.609.451a.551.551,0,0,1,.173.812,5.124,5.124,0,0,1-4.4,2.489A5.392,5.392,0,0,1,453.057,449.443Z" transform="translate(-453.057 -443.479)" fill="#0057a8"/>
    <path id="Trazado_15767" data-name="Trazado 15767" d="M609.585,482.139a3.242,3.242,0,0,1,2.362.97v-.188a.54.54,0,0,1,.6-.6h1.5a.54.54,0,0,1,.6.6v6.588a.54.54,0,0,1-.6.6h-1.5a.54.54,0,0,1-.6-.6v-.188a3.243,3.243,0,0,1-2.362.97c-2.091,0-3.557-1.782-3.557-4.076S607.495,482.139,609.585,482.139Zm.767,5.738a1.664,1.664,0,1,0-1.594-1.662A1.611,1.611,0,0,0,610.352,487.877Z" transform="translate(-595.048 -478.882)" fill="#0057a8"/>
    <path id="Trazado_15768" data-name="Trazado 15768" d="M756.209,451.388a3.217,3.217,0,0,1-2.362-.97v.188a.54.54,0,0,1-.6.6h-1.5a.54.54,0,0,1-.6-.6v-9.777a.54.54,0,0,1,.6-.6h1.5a.54.54,0,0,1,.6.6v3.377a3.217,3.217,0,0,1,2.362-.97c2.1,0,3.557,1.782,3.557,4.076S758.307,451.388,756.209,451.388Zm-.76-5.738a1.664,1.664,0,1,0,1.587,1.662A1.613,1.613,0,0,0,755.449,445.649Z" transform="translate(-729.744 -439.979)" fill="#0057a8"/>
    <path id="Trazado_15769" data-name="Trazado 15769" d="M888.677,436.768a1.447,1.447,0,1,1-1.542,1.444A1.468,1.468,0,0,1,888.677,436.768Zm-.79,3.437h1.579a.54.54,0,0,1,.6.6v6.588a.54.54,0,0,1-.6.6h-1.579a.54.54,0,0,1-.6-.6v-6.588A.54.54,0,0,1,887.887,440.205Z" transform="translate(-855.978 -436.768)" fill="#0057a8"/>
    <path id="Trazado_15770" data-name="Trazado 15770" d="M506.049,621.774a1.211,1.211,0,0,1-1.1.6,1.309,1.309,0,0,1,0-2.618,1.139,1.139,0,0,1,1.146.8c.023.069-.013.114-.085.114h-.242a.115.115,0,0,1-.116-.081.73.73,0,0,0-.7-.454.938.938,0,0,0,.016,1.869.966.966,0,0,0,.806-.416.091.091,0,0,1,.141-.024l.1.071A.094.094,0,0,1,506.049,621.774Z" transform="translate(-500.044 -606.625)" fill="#53b729"/>
    <path id="Trazado_15771" data-name="Trazado 15771" d="M563.336,619.76a1.309,1.309,0,1,1-1.343,1.309A1.308,1.308,0,0,1,563.336,619.76Zm0,2.243a.935.935,0,1,0-.911-.935A.913.913,0,0,0,563.336,622Z" transform="translate(-554.174 -606.625)" fill="#53b729"/>
    <path id="Trazado_15772" data-name="Trazado 15772" d="M625.7,620.365h.224a.091.091,0,0,1,.1.1v2.061H627a.091.091,0,0,1,.1.1v.166a.092.092,0,0,1-.1.1h-1.3a.091.091,0,0,1-.1-.1v-2.328A.091.091,0,0,1,625.7,620.365Z" transform="translate(-613.214 -607.187)" fill="#53b729"/>
    <path id="Trazado_15773" data-name="Trazado 15773" d="M670.326,619.76a1.309,1.309,0,1,1-1.343,1.309A1.308,1.308,0,0,1,670.326,619.76Zm0,2.243a.935.935,0,1,0-.911-.935A.913.913,0,0,0,670.326,622Z" transform="translate(-653.484 -606.625)" fill="#53b729"/>
    <path id="Trazado_15774" data-name="Trazado 15774" d="M733.777,622.482,733,621.121v1.674a.091.091,0,0,1-.1.1h-.2a.091.091,0,0,1-.1-.1v-2.328a.091.091,0,0,1,.1-.1h.239a.126.126,0,0,1,.121.071l.875,1.542.875-1.542a.126.126,0,0,1,.121-.071h.237a.091.091,0,0,1,.1.1v2.328a.092.092,0,0,1-.1.1h-.2a.091.091,0,0,1-.1-.1v-1.674l-.781,1.361a.127.127,0,0,1-.121.07H733.9A.126.126,0,0,1,733.777,622.482Z" transform="translate(-712.525 -607.187)" fill="#53b729"/>
    <path id="Trazado_15775" data-name="Trazado 15775" d="M798.006,622.795v-2.328a.091.091,0,0,1,.1-.1h.821a.655.655,0,0,1,.734.678.516.516,0,0,1-.324.51.611.611,0,0,1,.465.615.7.7,0,0,1-.759.729h-.936A.091.091,0,0,1,798.006,622.795Zm.889-2.07h-.466v.691h.466a.345.345,0,1,0,0-.691Zm.1,1.038h-.569v.774H799a.387.387,0,0,0,0-.774Z" transform="translate(-773.246 -607.187)" fill="#53b729"/>
    <path id="Trazado_15776" data-name="Trazado 15776" d="M850.278,620.466v2.328a.092.092,0,0,1-.1.1h-.224a.091.091,0,0,1-.1-.1v-2.328a.091.091,0,0,1,.1-.1h.224A.092.092,0,0,1,850.278,620.466Z" transform="translate(-821.37 -607.187)" fill="#53b729"/>
    <path id="Trazado_15777" data-name="Trazado 15777" d="M883.262,620.446l.857,2.334c.025.071-.007.116-.081.116h-.246a.113.113,0,0,1-.116-.081l-.183-.53h-1l-.183.53a.113.113,0,0,1-.116.081h-.246c-.074,0-.107-.045-.081-.116l.859-2.334a.111.111,0,0,1,.116-.081h.3A.111.111,0,0,1,883.262,620.446Zm-.266.381-.381,1.1h.763Z" transform="translate(-851.085 -607.187)" fill="#53b729"/>
  </g>
  <g id="Grupo_43666" data-name="Grupo 43666">
    <g id="Grupo_43669" data-name="Grupo 43669">
      <path id="Trazado_15778" data-name="Trazado 15778" d="M155.479,572.269a3.772,3.772,0,0,0-3.765-3.765,3.922,3.922,0,0,0-1.742.407,4.106,4.106,0,0,0-.068.575,9.1,9.1,0,0,0,9.108,8.805,9.248,9.248,0,0,0,1.565-.135,5.864,5.864,0,0,1-3.354-1.686A5.988,5.988,0,0,1,155.479,572.269Z" transform="translate(-149.904 -554.625)" fill="#53b729"/>
      <path id="Trazado_15779" data-name="Trazado 15779" d="M169.624,536.356a5.409,5.409,0,0,1-3.885-1.615,5.513,5.513,0,0,1-1.615-3.885,4.246,4.246,0,0,0-7.216-3,4.277,4.277,0,0,0-.79,1.093,4.85,4.85,0,0,1,1.364-.2,4.67,4.67,0,0,1,4.662,4.662,5.084,5.084,0,0,0,1.483,3.568l0,0a5,5,0,0,0,3.564,1.479,5.153,5.153,0,0,0,2.227-.511l1-.481a8.993,8.993,0,0,0,.795-.713,9.864,9.864,0,0,0,.833-.959A5.594,5.594,0,0,1,169.624,536.356Z" transform="translate(-155.672 -515.769)" fill="#53b729"/>
      <path id="Trazado_15780" data-name="Trazado 15780" d="M258.5,377.464c.22,0,.436.01.651.023-.708-.833-1.385-1.614-2.005-2.338-.788.963-1.664,1.97-2.584,3.021l-.112.129A10.178,10.178,0,0,1,258.5,377.464Z" transform="translate(-247.917 -375.149)" fill="#0057a8"/>
      <path id="Trazado_15781" data-name="Trazado 15781" d="M172.267,452.522c.3-.5-1.026-.649-1.1-1.2s.948-.548.785-1.263-1.4-.447-2.258-1.3a3.378,3.378,0,0,1-.759-1.569,31.647,31.647,0,0,0-3.57,5.324,5.4,5.4,0,0,1,3.078-.934,5.569,5.569,0,0,1,3.7,1.4A.71.71,0,0,1,172.267,452.522Z" transform="translate(-164.26 -442.019)" fill="#0057a8"/>
      <path id="Trazado_15782" data-name="Trazado 15782" d="M252.024,401.915a5.883,5.883,0,0,1-1.858,3.414.3.3,0,0,1-.045-.024.769.769,0,0,1-.145-.164c-.217-.317.065-.627.065-.9s-.545-.249-.563-.428c-.069-.619.38-.628.617-.867s-.235-.784-.544-.747-1.18-.143-1.1-.809c.1-.814-1.035-.742-1.2-1.12a1.087,1.087,0,0,1,.668-1.383l.019-.007c.128.15.26.295.392.44a6.767,6.767,0,0,1,1.424,2.049.92.92,0,0,0,1.706,0c.023-.057.049-.111.074-.166-1.433-2.037-3.151-4.023-4.615-5.718l-.244-.289c-.061-.006-.122-.011-.184-.014-.583.024-1.1.152-1.071.42.039.436.879.657,1.341.936.23.141.367.3.262.5a.456.456,0,0,1-.112.132c-.346.3-1.24.7-1.042,1.111.147.309.514.044.378.637-.065.271-.3.783-.668.816s-.69-.959-1.71-.992c-.485-.016-1.164.753-.588,1.3.351.331,1.007-.4,1.2.172.138.4-.018,1.243.62,1.592.563.312,1.853.52,2.054,1.846.118.8-.936.878-1.39,1.363a2.76,2.76,0,0,0-.477.912,5.486,5.486,0,0,1,.824,2.884,4.21,4.21,0,0,0,7.19,2.977,4.152,4.152,0,0,0,1.161-2.17c.025-.227.05-.479.076-.706v-.631C254.542,406.325,253.481,404.106,252.024,401.915Z" transform="translate(-236.376 -393.746)" fill="#0057a8"/>
    </g>
  </g>
</svg>
