<svg xmlns="http://www.w3.org/2000/svg" width="96.152" height="27.728" viewBox="0 0 96.152 27.728">
  <g id="logo_full_color" data-name="logo / full / color" transform="translate(0.152 0.22)">
    <path id="Trazado_15885" data-name="Trazado 15885" d="M215.821,708.41a1.258,1.258,0,0,1-.586-.135.446.446,0,0,1-.266-.42V697.377a.463.463,0,0,1,.236-.413.977.977,0,0,1,.512-.142h5.64a.444.444,0,0,1,.418.232,1.051,1.051,0,0,1,.129.492,1.007,1.007,0,0,1-.139.532.442.442,0,0,1-.409.232h-4.7v3.629h2.488a.472.472,0,0,1,.411.207.86.86,0,0,1,.136.476.845.845,0,0,1-.129.436.451.451,0,0,1-.418.213h-2.47v4.583a.441.441,0,0,1-.263.42A1.276,1.276,0,0,1,215.821,708.41Z" transform="translate(-182.498 -688.416)" fill="#2d2d2d"/>
    <path id="Trazado_15886" data-name="Trazado 15886" d="M283.495,746.678a3.292,3.292,0,0,1-1.661-.433,3.388,3.388,0,0,1-1.213-1.158,2.845,2.845,0,0,1-.451-1.529V739.6a.482.482,0,0,1,.249-.381,1.03,1.03,0,0,1,.6-.174,1.006,1.006,0,0,1,.586.174.482.482,0,0,1,.249.381v3.963a1.6,1.6,0,0,0,.216.79,1.723,1.723,0,0,0,.6.62,1.517,1.517,0,0,0,.827.233,1.48,1.48,0,0,0,.818-.233,1.745,1.745,0,0,0,.586-.62,1.554,1.554,0,0,0,.219-.79v-3.986a.448.448,0,0,1,.263-.38,1.113,1.113,0,0,1,.586-.158,1.039,1.039,0,0,1,.6.158.463.463,0,0,1,.236.38v3.98a2.869,2.869,0,0,1-.45,1.552,3.368,3.368,0,0,1-1.219,1.142A3.281,3.281,0,0,1,283.495,746.678Z" transform="translate(-241.328 -726.559)" fill="#2d2d2d"/>
    <path id="Trazado_15887" data-name="Trazado 15887" d="M367.587,704.777a.98.98,0,0,1-.6-.175.482.482,0,0,1-.236-.38V693.338a.448.448,0,0,1,.236-.386,1.092,1.092,0,0,1,.6-.15,1.149,1.149,0,0,1,.6.15.445.445,0,0,1,.239.386v10.891a.482.482,0,0,1-.249.381A1.027,1.027,0,0,1,367.587,704.777Z" transform="translate(-319.446 -684.782)" fill="#2d2d2d"/>
    <path id="Trazado_15888" data-name="Trazado 15888" d="M405.7,704.777a.98.98,0,0,1-.6-.175.482.482,0,0,1-.235-.38V693.338a.448.448,0,0,1,.236-.386,1.092,1.092,0,0,1,.6-.15,1.149,1.149,0,0,1,.6.15.442.442,0,0,1,.248.386v10.891a.482.482,0,0,1-.248.381A1.037,1.037,0,0,1,405.7,704.777Z" transform="translate(-353.831 -684.782)" fill="#2d2d2d"/>
    <path id="Trazado_15889" data-name="Trazado 15889" d="M473.639,708.091a5.247,5.247,0,0,1-1.847-.3,3.6,3.6,0,0,1-1.253-.737,1.214,1.214,0,0,1-.449-.833.869.869,0,0,1,.1-.395,1.2,1.2,0,0,1,.273-.358.536.536,0,0,1,.362-.151.624.624,0,0,1,.425.181c.134.122.293.269.489.436a2.776,2.776,0,0,0,.723.445,3.156,3.156,0,0,0,2.143,0,1.569,1.569,0,0,0,.721-.554,1.6,1.6,0,0,0,.266-.945,1.679,1.679,0,0,0-.282-1,2.283,2.283,0,0,0-.755-.666,8.876,8.876,0,0,0-1.017-.492c-.364-.146-.735-.306-1.109-.475a5.084,5.084,0,0,1-1.026-.611,2.641,2.641,0,0,1-.748-.9,3.007,3.007,0,0,1-.279-1.371,2.942,2.942,0,0,1,.329-1.46,2.613,2.613,0,0,1,.874-.927,3.839,3.839,0,0,1,1.206-.5,5.752,5.752,0,0,1,1.3-.151,7.807,7.807,0,0,1,.89.055,6.045,6.045,0,0,1,.955.193,2.467,2.467,0,0,1,.77.358.65.65,0,0,1,.306.538,1.18,1.18,0,0,1-.313.745.517.517,0,0,1-.391.16.944.944,0,0,1-.47-.151,4,4,0,0,0-.666-.3,3.722,3.722,0,0,0-2.115,0,1.581,1.581,0,0,0-.7.464,1.4,1.4,0,0,0,.023,1.647,2.293,2.293,0,0,0,.748.555,9.973,9.973,0,0,0,1.017.434,11.376,11.376,0,0,1,1.107.482,5.268,5.268,0,0,1,1.029.676,2.864,2.864,0,0,1,.754,1.007,3.639,3.639,0,0,1,.284,1.512,3.514,3.514,0,0,1-.47,1.9,2.862,2.862,0,0,1-1.3,1.117A4.615,4.615,0,0,1,473.639,708.091Z" transform="translate(-412.686 -687.972)" fill="#2d2d2d"/>
    <path id="Trazado_15890" data-name="Trazado 15890" d="M559.1,745.663a.986.986,0,0,1-.6-.175.489.489,0,0,1-.235-.38v-6.42a.466.466,0,0,1,.236-.386,1.1,1.1,0,0,1,.6-.149.934.934,0,0,1,.529.149.463.463,0,0,1,.235.386v.57a2.742,2.742,0,0,1,.8-.833,2.269,2.269,0,0,1,1.332-.371,1.976,1.976,0,0,1,1.276.443,2.644,2.644,0,0,1,.826,1.142,2.884,2.884,0,0,1,1.075-1.2,2.6,2.6,0,0,1,1.35-.386,2.664,2.664,0,0,1,1.356.364,2.814,2.814,0,0,1,1.036,1.062,3.343,3.343,0,0,1,.4,1.7v3.945a.482.482,0,0,1-.248.38,1.034,1.034,0,0,1-.6.175,1,1,0,0,1-.586-.175.482.482,0,0,1-.249-.38v-3.937a1.77,1.77,0,0,0-.216-.909,1.485,1.485,0,0,0-1.267-.758,1.392,1.392,0,0,0-.721.2,1.578,1.578,0,0,0-.788,1.434v3.975a.426.426,0,0,1-.266.41,1.314,1.314,0,0,1-.586.127,1.285,1.285,0,0,1-.562-.127.423.423,0,0,1-.275-.41v-3.965a1.732,1.732,0,0,0-.207-.869,1.508,1.508,0,0,0-.547-.563,1.424,1.424,0,0,0-.738-.193,1.5,1.5,0,0,0-1.267.747,1.725,1.725,0,0,0-.216.9v3.945a.482.482,0,0,1-.249.38A1.022,1.022,0,0,1,559.1,745.663Z" transform="translate(-492.239 -725.668)" fill="#2d2d2d"/>
    <path id="Trazado_15891" data-name="Trazado 15891" d="M685.89,745.762a2.287,2.287,0,0,1-1.509-.514,2.3,2.3,0,0,1-.154-2.968,2.6,2.6,0,0,1,1.322-.676,8.891,8.891,0,0,1,1.955-.193h.7v-.289a2.175,2.175,0,0,0-.153-.8,1.416,1.416,0,0,0-1.445-.909,2.937,2.937,0,0,0-.916.111,2.374,2.374,0,0,0-.513.232.646.646,0,0,1-.355.128.5.5,0,0,1-.449-.279,1.088,1.088,0,0,1-.159-.562.633.633,0,0,1,.375-.514,3.212,3.212,0,0,1,.94-.365,4.657,4.657,0,0,1,1.107-.134,3.586,3.586,0,0,1,1.894.433,2.617,2.617,0,0,1,1.029,1.135,3.557,3.557,0,0,1,.32,1.506v3.98a.463.463,0,0,1-.236.386.974.974,0,0,1-.586.168.88.88,0,0,1-.545-.168.475.475,0,0,1-.236-.386v-.555a4.856,4.856,0,0,1-1.01.857A2.565,2.565,0,0,1,685.89,745.762Zm.611-1.266a1.513,1.513,0,0,0,.795-.233,2.188,2.188,0,0,0,.658-.6,1.263,1.263,0,0,0,.266-.744v-.6h-.4a8.919,8.919,0,0,0-1.156.072,1.836,1.836,0,0,0-.874.316.883.883,0,0,0-.329.754.966.966,0,0,0,.293.785A1.133,1.133,0,0,0,686.5,744.5Z" transform="translate(-605.466 -725.643)" fill="#2d2d2d"/>
    <path id="Trazado_15892" data-name="Trazado 15892" d="M764.921,745.713a.954.954,0,0,1-.586-.175.487.487,0,0,1-.235-.38v-6.42a.463.463,0,0,1,.234-.386,1.072,1.072,0,0,1,.586-.149.959.959,0,0,1,.544.149.466.466,0,0,1,.236.386v.7a2.761,2.761,0,0,1,.47-.633,2.652,2.652,0,0,1,.7-.5,1.923,1.923,0,0,1,.867-.193h.515a.577.577,0,0,1,.449.213.734.734,0,0,1,.2.515.766.766,0,0,1-.2.522.576.576,0,0,1-.449.232h-.515a1.721,1.721,0,0,0-.94.289,2.156,2.156,0,0,0-.73.8,2.573,2.573,0,0,0-.279,1.244v3.248a.486.486,0,0,1-.249.381A1.059,1.059,0,0,1,764.921,745.713Z" transform="translate(-677.961 -725.718)" fill="#2d2d2d"/>
    <path id="Trazado_15893" data-name="Trazado 15893" d="M825.391,714.381a3.221,3.221,0,0,1-2.088-.594,2.293,2.293,0,0,1-.723-1.879v-7.94a.443.443,0,0,1,.266-.386,1.148,1.148,0,0,1,.571-.152,1.186,1.186,0,0,1,.578.152.442.442,0,0,1,.273.386v2.9h1.97a.386.386,0,0,1,.346.193.823.823,0,0,1,0,.854.386.386,0,0,1-.346.193h-1.955v3.806a1.091,1.091,0,0,0,.249.81,1.259,1.259,0,0,0,.88.232h.533a.7.7,0,0,1,.555.213.754.754,0,0,1,0,.991.677.677,0,0,1-.555.228Z" transform="translate(-730.726 -694.386)" fill="#2d2d2d"/>
    <path id="Trazado_15894" data-name="Trazado 15894" d="M722.537,851.206l1.67-2.565h1.037l-2.412,3.505-.443,2.105h-.926l.463-2.122L721,848.648h.941Z" transform="translate(-636.113 -826.829)" fill="#2d2d2d"/>
    <path id="Trazado_15895" data-name="Trazado 15895" d="M772.93,869.911a1.629,1.629,0,0,1-1.195-.424,1.608,1.608,0,0,1-.429-1.191,3.355,3.355,0,0,1,.3-1.415,2.429,2.429,0,0,1,.816-1.011,1.981,1.981,0,0,1,1.152-.355,1.514,1.514,0,0,1,.974.278.95.95,0,0,1,.347.788,1.217,1.217,0,0,1-.648,1.1,3.571,3.571,0,0,1-1.844.394h-.167v.229a.964.964,0,0,0,.219.669.845.845,0,0,0,.655.241,2.207,2.207,0,0,0,.556-.076,4.144,4.144,0,0,0,.653-.249v.716a3.547,3.547,0,0,1-.686.24A3.135,3.135,0,0,1,772.93,869.911Zm.592-3.706a.986.986,0,0,0-.7.33,1.912,1.912,0,0,0-.472.87h.113a2.612,2.612,0,0,0,1.143-.2.635.635,0,0,0,.411-.581.391.391,0,0,0-.124-.3A.56.56,0,0,0,773.521,866.2Z" transform="translate(-682.534 -842.415)" fill="#2d2d2d"/>
    <path id="Trazado_15896" data-name="Trazado 15896" d="M824.433,868.647a1.212,1.212,0,0,1-.458,1.022,2.014,2.014,0,0,1-1.275.367,2.779,2.779,0,0,1-1.25-.256V869a2.374,2.374,0,0,0,1.212.347,1.092,1.092,0,0,0,.61-.152.476.476,0,0,0,.232-.418.459.459,0,0,0-.136-.335,2.663,2.663,0,0,0-.556-.376,2.012,2.012,0,0,1-.686-.524,1.013,1.013,0,0,1-.2-.63,1.137,1.137,0,0,1,.417-.934,1.725,1.725,0,0,1,1.123-.337,2.719,2.719,0,0,1,1.347.322l-.3.674a2.2,2.2,0,0,0-1.033-.292.779.779,0,0,0-.463.126.412.412,0,0,0-.186.354.428.428,0,0,0,.128.3,2.223,2.223,0,0,0,.525.346,3.155,3.155,0,0,1,.58.387,1.2,1.2,0,0,1,.259.351A1.029,1.029,0,0,1,824.433,868.647Z" transform="translate(-728.811 -842.53)" fill="#2d2d2d"/>
    <path id="Trazado_15897" data-name="Trazado 15897" d="M542.953,163.545c0,.21-.012.42-.032.624a7.809,7.809,0,0,1,6.564.207,6.223,6.223,0,0,0-6.187-7,6.27,6.27,0,0,0-3.3.929A6.145,6.145,0,0,1,542.953,163.545Z" transform="translate(-526.307 -157.379)" fill="#74bc80" stroke="#fff" stroke-width="0.3"/>
    <path id="Trazado_15898" data-name="Trazado 15898" d="M367.2,164.16a6.13,6.13,0,0,1,2.91-5.86,6.312,6.312,0,0,0-6.33-.153,6.1,6.1,0,0,0-3.151,6.22,7.81,7.81,0,0,1,6.565-.207Z" transform="translate(-356.421 -157.37)" fill="#fdca38" stroke="#fff" stroke-width="0.3"/>
    <path id="Trazado_15899" data-name="Trazado 15899" d="M561.241,526.965a7.787,7.787,0,0,1-8.241-1.5v.606h0c.023,2.557.561,4.832,2.625,5.605a4.558,4.558,0,0,0,3.883-.8,4.435,4.435,0,0,0,1.744-3.518A2.777,2.777,0,0,0,561.241,526.965Z" transform="translate(-538.616 -506.138)" fill="#0098cc" stroke="#fff" stroke-width="0.3"/>
    <path id="Trazado_15900" data-name="Trazado 15900" d="M556.747,476.73A4.521,4.521,0,0,0,553,478.706v.583a7.787,7.787,0,0,0,8.241,1.5A4.491,4.491,0,0,0,556.747,476.73Z" transform="translate(-538.616 -459.957)" fill="#007aa3" stroke="#fff" stroke-width="0.3"/>
    <path id="Trazado_15902" data-name="Trazado 15902" d="M578.957,274.76a7.791,7.791,0,0,0-3.061.624,6.069,6.069,0,0,1-.957,2.7c0,.138.011.276.011.414a9.351,9.351,0,0,1-.12,1.6,3.155,3.155,0,0,1,.8.792,6.2,6.2,0,0,0,6.833-5.3A7.768,7.768,0,0,0,578.957,274.76Z" transform="translate(-559.285 -268.595)" fill="#49b175" stroke="#fff" stroke-width="0.3"/>
    <path id="Trazado_15903" data-name="Trazado 15903" d="M524.333,303.83h-.016a1.2,1.2,0,0,0-.838.344l-.029.031c.128.115.256.234.384.358a.666.666,0,0,1,1,0c.12-.12.245-.238.372-.349A1.2,1.2,0,0,0,524.333,303.83Z" transform="translate(-510.638 -296.138)" fill="#56ae31" stroke="#fff" stroke-width="0.3"/>
    <path id="Trazado_15904" data-name="Trazado 15904" d="M486.144,181.6a5.77,5.77,0,0,1,1.655-2.865,5.609,5.609,0,0,1,1.655,2.869,7.847,7.847,0,0,1,1.265-.687,6.122,6.122,0,0,0-2.918-5.86,6.132,6.132,0,0,0-2.908,5.86A7.749,7.749,0,0,1,486.144,181.6Z" transform="translate(-474.1 -174.127)" fill="#56ae31" stroke="#fff" stroke-width="0.3"/>
    <path id="Trazado_15905" data-name="Trazado 15905" d="M547.107,312.018a1.115,1.115,0,0,0-.306-.758c-.128.111-.255.228-.372.349a.622.622,0,0,1-.169.971c.1.139.192.28.281.425A1.144,1.144,0,0,0,547.107,312.018Z" transform="translate(-532.234 -303.178)" fill="#49b175" stroke="#fff" stroke-width="0.3"/>
    <path id="Trazado_15906" data-name="Trazado 15906" d="M571.427,289.3a6.07,6.07,0,0,0,.957-2.7,7.846,7.846,0,0,0-1.265.687A9.372,9.372,0,0,1,571.427,289.3Z" transform="translate(-555.772 -279.813)" fill="#49b175" stroke="#fff" stroke-width="0.3"/>
    <path id="Trazado_15908" data-name="Trazado 15908" d="M518.065,311.778a.626.626,0,0,1,.16-.42c-.128-.127-.256-.243-.384-.358a1.114,1.114,0,0,0-.312.783,1.15,1.15,0,0,0,.579.977q.136-.222.285-.432A.629.629,0,0,1,518.065,311.778Z" transform="translate(-505.032 -302.932)" fill="#ee781f" stroke="#fff" stroke-width="0.3"/>
    <path id="Trazado_15909" data-name="Trazado 15909" d="M368.633,280.887a3.1,3.1,0,0,1,.813-.806,9.572,9.572,0,0,1-.138-1.558c0-.151,0-.3.008-.448a6.068,6.068,0,0,1-.952-2.693,7.81,7.81,0,0,0-6.565.207A6.2,6.2,0,0,0,368.633,280.887Z" transform="translate(-357.586 -268.593)" fill="#ee781f" stroke="#fff" stroke-width="0.3"/>
    <path id="Trazado_15912" data-name="Trazado 15912" d="M377.449,531.764c1.968-.746,2.541-2.861,2.606-5.281v-.923a7.787,7.787,0,0,1-8.236,1.49c-.013.126-.019.263-.019.4a4.438,4.438,0,0,0,1.753,3.525A4.56,4.56,0,0,0,377.449,531.764Z" transform="translate(-367.054 -506.223)" fill="#e8408e" stroke="#fff" stroke-width="0.3"/>
    <path id="Trazado_15913" data-name="Trazado 15913" d="M529.115,336.856a1.2,1.2,0,0,0,.61-.17c-.089-.145-.183-.287-.281-.426a.656.656,0,0,1-.659,0q-.15.21-.285.432a1.2,1.2,0,0,0,.6.164Z" transform="translate(-515.419 -326.865)" fill="#ee781f" stroke="#fff" stroke-width="0.3"/>
    <path id="Trazado_15914" data-name="Trazado 15914" d="M561.792,290.485a6.2,6.2,0,0,1-6.834,5.3,3,3,0,0,1,.335,2.831,3.119,3.119,0,0,0-1.245-1.436,3.453,3.453,0,0,0-.471-.253,2.514,2.514,0,0,1-.166.3c-.088-.02-.119-.024-.213-.043H553v5.051a4.538,4.538,0,0,1,4.865-1.839,4.471,4.471,0,0,1,3.376,3.917,7.582,7.582,0,0,0,.551-13.833Z" transform="translate(-538.616 -283.489)" fill="#41b9c0" stroke="#fff" stroke-width="0.3"/>
    <path id="Trazado_15915" data-name="Trazado 15915" d="M295.367,297.279c-.066.017-.128.038-.2.059-.053-.105-.106-.214-.154-.324a3.19,3.19,0,0,0-1.714,1.733,3,3,0,0,1,.319-2.871,6.2,6.2,0,0,1-6.835-5.3,7.582,7.582,0,0,0,.551,13.832,4.47,4.47,0,0,1,3.372-3.915,4.539,4.539,0,0,1,4.864,1.83v-5.051Z" transform="translate(-282.572 -283.584)" fill="#f39638" stroke="#fff" stroke-width="0.3"/>
    <path id="Trazado_15916" data-name="Trazado 15916" d="M486.6,287.333a7.773,7.773,0,0,0-1.259-.683,6.069,6.069,0,0,0,.952,2.693,8.9,8.9,0,0,1,.307-2.01Z" transform="translate(-474.555 -279.86)" fill="#ee781f" stroke="#fff" stroke-width="0.3"/>
    <path id="Trazado_15917" data-name="Trazado 15917" d="M380.4,478.707a4.539,4.539,0,0,0-4.864-1.83,4.471,4.471,0,0,0-3.372,3.915A7.787,7.787,0,0,0,380.4,479.3Z" transform="translate(-367.395 -459.964)" fill="#e52f2d" stroke="#fff" stroke-width="0.3"/>
  </g>
</svg>
