<svg id="logo_gbp" data-name="logo / gbp" xmlns="http://www.w3.org/2000/svg" width="96.195" height="24.341" viewBox="0 0 96.195 24.341">
  <path id="Trazado_15796" data-name="Trazado 15796" d="M138.613,159.492l-.3.288a2.275,2.275,0,0,0-.719-.488,1.882,1.882,0,0,0-.757-.167,1.8,1.8,0,0,0-.878.226,1.648,1.648,0,0,0-.644.614,1.582,1.582,0,0,0-.229.817,1.623,1.623,0,0,0,.236.84,1.7,1.7,0,0,0,.655.624,1.885,1.885,0,0,0,.914.229,1.553,1.553,0,0,0,1.027-.341,1.335,1.335,0,0,0,.5-.883h-1.248v-.367h1.687a1.962,1.962,0,0,1-.539,1.44,1.923,1.923,0,0,1-1.428.534,2.144,2.144,0,0,1-1.718-.739,1.972,1.972,0,0,1-.485-1.317,2.036,2.036,0,0,1,.277-1.027,1.987,1.987,0,0,1,.77-.747,2.229,2.229,0,0,1,1.1-.257,2.47,2.47,0,0,1,.935.177A2.825,2.825,0,0,1,138.613,159.492Z" transform="translate(-106.976 -157.54)" fill="#637381"/>
  <path id="Trazado_15797" data-name="Trazado 15797" d="M153,162.784h.38v.421a1.317,1.317,0,0,1,.359-.372.709.709,0,0,1,.393-.123.673.673,0,0,1,.331.1l-.2.313a.514.514,0,0,0-.2-.049.532.532,0,0,0-.359.151.976.976,0,0,0-.257.475,4.534,4.534,0,0,0-.069,1v.981H153Z" transform="translate(-120.593 -160.471)" fill="#637381"/>
  <path id="Trazado_15798" data-name="Trazado 15798" d="M159.686,163h.372v1.351a2.886,2.886,0,0,0,.051.68.77.77,0,0,0,.306.421.93.93,0,0,0,.537.154.906.906,0,0,0,.529-.151.77.77,0,0,0,.3-.4,2.825,2.825,0,0,0,.056-.709V163h.38v1.42a2.213,2.213,0,0,1-.146.891,1.076,1.076,0,0,1-.419.475,1.541,1.541,0,0,1-1.41,0,1.055,1.055,0,0,1-.424-.48,2.342,2.342,0,0,1-.139-.924Z" transform="translate(-125.556 -160.687)" fill="#637381"/>
  <path id="Trazado_15799" data-name="Trazado 15799" d="M172.81,162.784h.372v.532a1.461,1.461,0,0,1,.514-.454,1.322,1.322,0,0,1,.639-.151,1.425,1.425,0,0,1,1.055.444,1.464,1.464,0,0,1,.439,1.068,1.489,1.489,0,0,1-.437,1.084,1.458,1.458,0,0,1-1.687.3,1.635,1.635,0,0,1-.514-.429v1.556h-.372Zm1.489.282a1.094,1.094,0,0,0-.814.339,1.158,1.158,0,0,0-.329.84,1.209,1.209,0,0,0,.146.593,1.076,1.076,0,0,0,.421.416,1.176,1.176,0,0,0,.58.154,1.107,1.107,0,0,0,.565-.154,1.195,1.195,0,0,0,.421-1.6A1.127,1.127,0,0,0,174.3,163.066Z" transform="translate(-135.316 -160.471)" fill="#637381"/>
  <path id="Trazado_15800" data-name="Trazado 15800" d="M188.215,162.709a1.428,1.428,0,0,1,1.107.483,1.541,1.541,0,0,1-.023,2.105,1.525,1.525,0,0,1-2.172,0,1.541,1.541,0,0,1-.023-2.1A1.433,1.433,0,0,1,188.215,162.709Zm0,.365a1.073,1.073,0,0,0-.8.342,1.194,1.194,0,0,0-.18,1.415,1.04,1.04,0,0,0,.411.419,1.155,1.155,0,0,0,1.135,0,1.063,1.063,0,0,0,.413-.419,1.184,1.184,0,0,0,.151-.585,1.145,1.145,0,0,0-.336-.829,1.073,1.073,0,0,0-.8-.342Z" transform="translate(-145.64 -160.47)" fill="#637381"/>
  <path id="Trazado_15826" data-name="Trazado 15826" d="M143.027,190.721q0,1.541-2.054,1.541H134.4v-.77h6.573c.549,0,.822-.257.822-.77s-.272-.77-.822-.77H134.4v-.77h6.573c.549,0,.822-.257.822-.77s-.272-.77-.822-.77H134.4v-.77h6.573q2.054,0,2.054,1.541a1.348,1.348,0,0,1-.514,1.155A1.348,1.348,0,0,1,143.027,190.721Z" transform="translate(-106.768 -178.428)" fill="#cbd2d6"/>
  <path id="Trazado_15827" data-name="Trazado 15827" d="M176.032,186.87v5.392H174.8V186.87Z" transform="translate(-136.795 -178.428)" fill="#cbd2d6"/>
  <path id="Trazado_15828" data-name="Trazado 15828" d="M186.874,189.566a1.353,1.353,0,0,1-.514-1.155q0-1.541,2.054-1.541H195v.77h-6.573q-.819,0-.822.77t.822.77H195v.77h-6.573q-.819,0-.822.77t.822.77H195v.77h-6.573q-2.054,0-2.054-1.541A1.353,1.353,0,0,1,186.874,189.566Z" transform="translate(-145.385 -178.428)" fill="#cbd2d6"/>
  <path id="Trazado_15829" data-name="Trazado 15829" d="M231.262,189.973l-3.12-1.764q-.169-.069-.169.231v3.851H226.74v-5.007c0-.257.139-.385.411-.385a.881.881,0,0,1,.411.157l3.7,2.154,3.117,1.772q.169.069.169-.231V186.9h1.245v5.007c0,.257-.139.385-.411.385a.891.891,0,0,1-.411-.159Z" transform="translate(-175.399 -178.45)" fill="#cbd2d6"/>
  <path id="Trazado_15830" data-name="Trazado 15830" d="M135.638,226.262h-1.232v-1.541q0-1.541,2.054-1.541h4.514c.549,0,.822-.257.822-.77s-.272-.77-.822-.77H134.4v-.77h6.573q2.054,0,2.054,1.541t-2.054,1.541h-4.519q-.819,0-.822.77Z" transform="translate(-106.768 -203.698)" fill="#cbd2d6"/>
  <path id="Trazado_15831" data-name="Trazado 15831" d="M175.3,223.566a1.348,1.348,0,0,1-.514-1.155q0-1.541,2.054-1.541h6.573v.77h-6.573c-.549,0-.822.257-.822.77s.272.77.822.77h6.573v.77h-6.573c-.549,0-.822.257-.822.77s.272.77.822.77h6.573v.77h-6.573q-2.054,0-2.054-1.541a1.348,1.348,0,0,1,.514-1.155Z" transform="translate(-136.786 -203.698)" fill="#cbd2d6"/>
  <path id="Trazado_15832" data-name="Trazado 15832" d="M219.689,223.973l-3.117-1.764q-.169-.069-.169.231v3.851H215.17v-5.007c0-.257.136-.385.411-.385a.881.881,0,0,1,.411.157l3.7,2.154,3.12,1.772c.113.046.167-.031.167-.231V220.9h1.232v5.007c0,.257-.136.385-.411.385a.9.9,0,0,1-.411-.157Z" transform="translate(-166.8 -203.72)" fill="#cbd2d6"/>
  <path id="Trazado_15833" data-name="Trazado 15833" d="M257.15,226.262v-.77h3.3q.819,0,.822-.77v-2.311q0-1.541,2.054-1.541h3.287v.77h-3.287q-.819,0-.822.77v2.311q0,1.541-2.054,1.541Z" transform="translate(-198.001 -203.698)" fill="#cbd2d6"/>
  <path id="Trazado_15834" data-name="Trazado 15834" d="M295.73,226.262h-1.4l-.616-.77h-5.056l-.565.77h-.986l3.705-5.007a.8.8,0,0,1,.644-.385.308.308,0,0,1,.244.157Zm-4.56-3.99q-.082-.162-.3.139l-1.715,2.311h3.9Z" transform="translate(-220.268 -203.698)" fill="#cbd2d6"/>
  <path id="Trazado_15835" data-name="Trazado 15835" d="M336.077,224.721q0,1.541-2.054,1.541H327.45v-.77h6.573c.549,0,.822-.257.822-.77v-2.311c0-.514-.272-.77-.822-.77H327.45v-.77h6.573q2.054,0,2.054,1.541Z" transform="translate(-250.25 -203.698)" fill="#cbd2d6"/>
  <path id="Trazado_15836" data-name="Trazado 15836" d="M369.884,226.262q-2.054,0-2.054-1.541v-2.311q0-1.541,2.054-1.541H374.4q2.054,0,2.054,1.541v2.311q0,1.541-2.054,1.541Zm0-4.622c-.549,0-.822.257-.822.77v2.311c0,.514.272.77.822.77H374.4q.819,0,.822-.77v-2.311q0-.77-.822-.77Z" transform="translate(-280.262 -203.698)" fill="#cbd2d6"/>
  <path id="Trazado_15837" data-name="Trazado 15837" d="M31.8,166.039l8.721-5.159,1.884,1.084-7.483,4.614a.274.274,0,0,0,0,.469l5.409,3.177a.272.272,0,0,0,.274,0l5.618-3.23a.274.274,0,0,0,0-.481l-1.442-.855a.276.276,0,0,0-.279,0l-3.943,2.374-1.781-1.177,5.957-3.513a.014.014,0,0,1,.019,0l5.923,3.444v.019l-8.843,5.118a2.684,2.684,0,0,1-2.708-.012l-7.322-4.325a.9.9,0,0,1,0-1.545Z" transform="translate(-29.543 -160.88)" fill="#637381"/>
  <path id="Trazado_15838" data-name="Trazado 15838" d="M34.2,196.789a1.834,1.834,0,0,0-.805-1.105l-.276-.175L23.77,190.19v2.288l8.057,4.647a.461.461,0,0,1,.24.4v1.322a.481.481,0,0,1-.7.406l-7.6-4.378v2.578l8.057,4.645a.466.466,0,0,1,.24.406v1.334a.481.481,0,0,1-.7.406l-7.6-4.39v2.163l7.69,4.441c2.052.889,2.593-1.495,2.593-1.495s.75-2.271-.721-3.677C33.31,201.287,35.057,200.252,34.2,196.789Z" transform="translate(-23.77 -183.147)" fill="#cbd2d6"/>
  <path id="Trazado_15839" data-name="Trazado 15839" d="M71.786,239.565v-.055A.3.3,0,0,0,71.786,239.565Z" transform="translate(-60.246 -220.615)" fill="#cbd2d6"/>
  <path id="Trazado_15840" data-name="Trazado 15840" d="M80.1,194.552l-8.293,4.734v2.194l2.4-1.29,5.573-3.234a.464.464,0,0,1,.694.4v1.473a.459.459,0,0,1-.24.4l-5.573,3.153c-1.113.646-2.684,1.182-2.857,2.848v5.438l2.208-1.122v-3.6a1.49,1.49,0,0,1,.747-1.293l6.678-3.845a1.355,1.355,0,0,0,.678-1.175v-3.9a1.355,1.355,0,0,0-2.019-1.177Z" transform="translate(-60.266 -186.328)" fill="#cbd2d6"/>
</svg>
