<svg id="logo_grow" data-name="logo / grow" xmlns="http://www.w3.org/2000/svg" width="76.311" height="30.661" viewBox="0 0 76.311 30.661">
  <path id="Trazado_15945" data-name="Trazado 15945" d="M294.535,424.377a.384.384,0,0,1-.392-.392.389.389,0,0,1,.112-.282.375.375,0,0,1,.279-.115.368.368,0,0,1,.274.115.39.39,0,0,1,.112.282.38.38,0,0,1-.112.279A.373.373,0,0,1,294.535,424.377Zm.311,3.336h-.622v-2.829h.622Z" transform="translate(-275.564 -398.233)" fill="#cbd2d6"/>
  <path id="Trazado_15946" data-name="Trazado 15946" d="M303.308,430.986v1.861h-.622v-2.829h.622v.374a1.353,1.353,0,0,1,1.037-.449.978.978,0,0,1,.775.311,1.265,1.265,0,0,1,.274.864v1.728h-.622v-1.59q0-.731-.663-.732a.9.9,0,0,0-.455.13A.942.942,0,0,0,303.308,430.986Z" transform="translate(-282.465 -403.366)" fill="#cbd2d6"/>
  <path id="Trazado_15947" data-name="Trazado 15947" d="M330.215,430.387v-.369h.622v2.576a1.278,1.278,0,0,1-.467,1.066,1.729,1.729,0,0,1-1.123.369,2.2,2.2,0,0,1-1.106-.254v-.57a1.959,1.959,0,0,0,1.037.276,1.2,1.2,0,0,0,.755-.219.78.78,0,0,0,.282-.657v-.213a1.221,1.221,0,0,1-1.008.443,1.278,1.278,0,0,1-.985-.421,1.469,1.469,0,0,1-.386-1.031,1.429,1.429,0,0,1,.386-1.02,1.278,1.278,0,0,1,.985-.42A1.2,1.2,0,0,1,330.215,430.387Zm-.841,1.9a.972.972,0,0,0,.5-.135.858.858,0,0,0,.34-.348v-.824a.853.853,0,0,0-.337-.354.971.971,0,0,0-.5-.135.883.883,0,0,0-.651.259.918.918,0,0,0,0,1.279A.882.882,0,0,0,329.373,432.288Z" transform="translate(-302.781 -403.366)" fill="#cbd2d6"/>
  <path id="Trazado_15948" data-name="Trazado 15948" d="M348.485,432.921a1.524,1.524,0,0,1-1.118-.432,1.5,1.5,0,0,1,0-2.114,1.654,1.654,0,0,1,2.23,0,1.425,1.425,0,0,1,.438,1.054,1.444,1.444,0,0,1-.438,1.06A1.53,1.53,0,0,1,348.485,432.921Zm0-.547a.9.9,0,0,0,.663-.271.983.983,0,0,0,0-1.343.931.931,0,0,0-1.6.668.915.915,0,0,0,.933.945Z" transform="translate(-318.206 -403.366)" fill="#cbd2d6"/>
  <path id="Trazado_15949" data-name="Trazado 15949" d="M367.161,432.921a1.525,1.525,0,0,1-1.118-.432,1.495,1.495,0,0,1,0-2.114,1.654,1.654,0,0,1,2.23,0,1.424,1.424,0,0,1,.438,1.054,1.443,1.443,0,0,1-.438,1.06A1.53,1.53,0,0,1,367.161,432.921Zm0-.547a.9.9,0,0,0,.662-.271.982.982,0,0,0,0-1.343.93.93,0,0,0-1.6.668.915.915,0,0,0,.934.945Z" transform="translate(-333.291 -403.366)" fill="#cbd2d6"/>
  <path id="Trazado_15950" data-name="Trazado 15950" d="M385.65,428.175a1.262,1.262,0,0,1-.985-.432,1.641,1.641,0,0,1,0-2.114,1.262,1.262,0,0,1,.985-.432,1.2,1.2,0,0,1,1.008.461v-1.59h.622V428.1h-.622v-.386A1.2,1.2,0,0,1,385.65,428.175Zm.167-.547a.912.912,0,0,0,.5-.141.972.972,0,0,0,.346-.366v-.876a.98.98,0,0,0-.349-.36.921.921,0,0,0-.493-.141.854.854,0,0,0-.651.277.921.921,0,0,0-.259.662.949.949,0,0,0,.259.674A.863.863,0,0,0,385.817,427.628Z" transform="translate(-348.376 -398.62)" fill="#cbd2d6"/>
  <path id="Trazado_15951" data-name="Trazado 15951" d="M412.929,426.239V428.1h-.622v-4.033h.622v1.579a1.354,1.354,0,0,1,1.037-.449.977.977,0,0,1,.775.311,1.264,1.264,0,0,1,.274.864V428.1h-.622v-1.59a.626.626,0,0,0-.663-.732.9.9,0,0,0-.455.13A.946.946,0,0,0,412.929,426.239Z" transform="translate(-371.017 -398.62)" fill="#cbd2d6"/>
  <path id="Trazado_15952" data-name="Trazado 15952" d="M432.374,432.363a.348.348,0,0,0,.167-.041v.473a.614.614,0,0,1-.363.092.54.54,0,0,1-.593-.4,1.32,1.32,0,0,1-1.043.438,1.149,1.149,0,0,1-.76-.253.853.853,0,0,1-.3-.7.807.807,0,0,1,.328-.691,1.286,1.286,0,0,1,.806-.248,1.824,1.824,0,0,1,.9.219V431.1q0-.616-.83-.616a1.663,1.663,0,0,0-.893.254v-.547a2.036,2.036,0,0,1,1.031-.242,1.479,1.479,0,0,1,.954.285.967.967,0,0,1,.354.8v1.054a.3.3,0,0,0,.066.207A.216.216,0,0,0,432.374,432.363Zm-.852-.317V431.7a1.515,1.515,0,0,0-.755-.2.884.884,0,0,0-.487.115.365.365,0,0,0-.176.323.383.383,0,0,0,.164.334.766.766,0,0,0,.446.115,1.117,1.117,0,0,0,.45-.1A1.046,1.046,0,0,0,431.522,432.046Z" transform="translate(-384.891 -403.366)" fill="#cbd2d6"/>
  <path id="Trazado_15953" data-name="Trazado 15953" d="M449.229,430.986v1.861h-.622v-2.829h.622v.374a1.353,1.353,0,0,1,1.037-.449.978.978,0,0,1,.775.311,1.265,1.265,0,0,1,.274.864v1.728h-.622v-1.59q0-.731-.663-.732a.9.9,0,0,0-.455.13A.946.946,0,0,0,449.229,430.986Z" transform="translate(-400.34 -403.366)" fill="#cbd2d6"/>
  <path id="Trazado_15954" data-name="Trazado 15954" d="M467.334,428.175a1.262,1.262,0,0,1-.985-.432,1.641,1.641,0,0,1,0-2.114,1.262,1.262,0,0,1,.985-.432,1.2,1.2,0,0,1,1.008.461v-1.59h.622V428.1h-.622v-.386A1.2,1.2,0,0,1,467.334,428.175Zm.167-.547a.912.912,0,0,0,.5-.141.972.972,0,0,0,.346-.366v-.876a.98.98,0,0,0-.349-.36.92.92,0,0,0-.493-.141.855.855,0,0,0-.651.277.921.921,0,0,0-.259.662.949.949,0,0,0,.259.674A.864.864,0,0,0,467.5,427.628Z" transform="translate(-414.36 -398.62)" fill="#cbd2d6"/>
  <path id="Trazado_15955" data-name="Trazado 15955" d="M486.478,432.921a2.089,2.089,0,0,1-1.181-.288v-.588a1.987,1.987,0,0,0,1.152.34.971.971,0,0,0,.458-.089.272.272,0,0,0,.164-.245.257.257,0,0,0-.173-.225,1.955,1.955,0,0,0-.271-.086l-.351-.086a1.754,1.754,0,0,1-.726-.326.767.767,0,0,1,.092-1.164,1.52,1.52,0,0,1,.881-.222,1.9,1.9,0,0,1,1.043.253v.571a2.068,2.068,0,0,0-1.02-.288.9.9,0,0,0-.432.084.253.253,0,0,0-.15.228q0,.133.179.225.023.012.271.086l.328.069q.968.213.968.893a.726.726,0,0,1-.34.622A1.535,1.535,0,0,1,486.478,432.921Z" transform="translate(-429.978 -403.366)" fill="#cbd2d6"/>
  <path id="Trazado_15956" data-name="Trazado 15956" d="M396.753,316.639c0-.129-.01-.258-.019-.385-.007-.11-.017-.217-.029-.324s-.02-.192-.034-.287l-.022-.16q-.018-.128-.044-.256c-.017-.093-.034-.185-.053-.278-.044-.214-.1-.426-.156-.635-.029-.1-.061-.207-.095-.312-.019-.058-.039-.119-.061-.18-.032-.1-.068-.2-.107-.3-.017-.046-.034-.095-.056-.144-.037-.095-.076-.19-.117-.283a9.575,9.575,0,0,0-1.066-1.853c-.039-.053-.078-.1-.119-.156s-.1-.129-.151-.192c-.1-.129-.209-.253-.319-.375-.054-.061-.11-.119-.165-.18s-.112-.117-.17-.175c-.114-.117-.231-.229-.353-.338l-.175-.158c-.022-.017-.044-.036-.066-.056-.063-.054-.129-.11-.195-.161s-.114-.092-.173-.139c-.1-.08-.207-.156-.314-.231-.068-.049-.136-.1-.207-.144-.239-.161-.487-.312-.74-.451a9.634,9.634,0,0,0-11.233,15.461c.085.08.173.161.263.239s.158.136.241.2a.582.582,0,0,0,.061.049c.068.056.136.11.207.163.214.163.436.319.667.465.085.056.173.109.26.161s.168.1.253.146c.207.115.419.222.638.321q.132.062.263.117c.083.034.163.068.243.1l.066.024c.078.029.153.058.231.085s.183.063.275.092.187.058.28.085c.075.022.153.044.231.063s.165.041.248.061c.053.015.107.024.161.034.071.017.139.032.209.044.1.019.192.036.29.051a9.513,9.513,0,0,0,1.524.122,9.9,9.9,0,0,0,1.948-.195,9.628,9.628,0,0,0,5.7-3.581q.208-.278.4-.562a9.608,9.608,0,0,0,1.585-5.3C396.758,316.841,396.755,316.741,396.753,316.639Zm-5.565,2.264c0,.005,0,.008,0,.01a5.521,5.521,0,1,1,0-.01Z" transform="translate(-342.891 -304.304)" fill="#cbd2d6"/>
  <path id="Trazado_15957" data-name="Trazado 15957" d="M321.733,308.726a9.621,9.621,0,0,0-2.641,3.941.533.533,0,0,1-.784.287,4.458,4.458,0,0,0-2.035-.7c-.129-.012-.258-.017-.385-.017a4.621,4.621,0,0,0-4.652,4.621v8.487a.174.174,0,0,1-.175.175H306.4a.174.174,0,0,1-.175-.175v-9.521a9.888,9.888,0,0,1,2.464-6.522,9.531,9.531,0,0,1,13.022-1.324A.486.486,0,0,1,321.733,308.726Z" transform="translate(-285.323 -303.245)" fill="#cbd2d6"/>
  <path id="Trazado_15958" data-name="Trazado 15958" d="M493.379,307.308l-4.265,12.4-2.23,6.489a.557.557,0,0,1-.527.376h-2.784a.557.557,0,0,1-.527-.375l-1.7-4.915-1.689,4.914a.557.557,0,0,1-.527.376h-2.793a.557.557,0,0,1-.527-.376l-2.23-6.489-4.265-12.4h3.6a2.309,2.309,0,0,1,2.184,1.558l3.126,9.092,2.354-6.845a.814.814,0,0,1,1.539,0l2.361,6.82,3.125-9.091a2.271,2.271,0,0,1,2.147-1.533Z" transform="translate(-417.067 -304.302)" fill="#cbd2d6"/>
  <path id="Trazado_15962" data-name="Trazado 15962" d="M273.138,323.238h-4.862a.193.193,0,0,1-.154-.309,23.307,23.307,0,0,1,2.806-3.059.137.137,0,0,1,.185,0,9.879,9.879,0,0,1,2.2,3.1A.192.192,0,0,1,273.138,323.238Z" transform="translate(-254.513 -314.422)" fill="#cbd2d6"/>
  <circle id="Elipse_4" data-name="Elipse 4" cx="0.394" cy="0.394" r="0.394" transform="translate(15.557)" fill="#637381"/>
  <circle id="Elipse_5" data-name="Elipse 5" cx="0.394" cy="0.394" r="0.394" transform="translate(6.58 22.82)" fill="#f59f1c"/>
  <path id="Trazado_15963" data-name="Trazado 15963" d="M211.012,307.179a22.5,22.5,0,0,0-4.385,3.927.266.266,0,0,1-.155.088,4.717,4.717,0,0,0-3.874,4.641,4.657,4.657,0,0,0,.211,1.4.247.247,0,0,1-.006.167,22.25,22.25,0,0,0-1.459,5.743.256.256,0,0,1-.42.168A9.834,9.834,0,0,1,210.963,306.7.272.272,0,0,1,211.012,307.179Z" transform="translate(-197.48 -303.246)" fill="#cbd2d6"/>
  <path id="Trazado_15964" data-name="Trazado 15964" d="M254.471,349.908a9.835,9.835,0,0,1-9.835,9.835q-.267,0-.53-.014a.447.447,0,0,1-.425-.454,23.109,23.109,0,0,1,.5-4.291.458.458,0,0,1,.449-.36h0a4.712,4.712,0,0,0,4.3-2.768h-3.127a.49.49,0,0,1-.454-.673,22.461,22.461,0,0,1,1.338-2.758.49.49,0,0,1,.425-.245h6.624a.671.671,0,0,1,.668.589A9.9,9.9,0,0,1,254.471,349.908Z" transform="translate(-234.802 -337.318)" fill="#cbd2d6"/>
  <path id="Trazado_15965" data-name="Trazado 15965" d="M235.539,300.674l-3.725,1.04a.169.169,0,0,0-.038.309l.6.344c-.258.161-.513.329-.763.5a22.577,22.577,0,0,0-4.407,3.952,22.3,22.3,0,0,0-2.16,2.981c-.019.029-.037.056-.052.085a22.4,22.4,0,0,0-3.154,10.046q-.052.721-.052,1.453a.284.284,0,0,0,0,.04h0v.013l0,0a.392.392,0,0,0,.192.322h0l0,0a.422.422,0,0,0,.049.026l0,0a11.174,11.174,0,0,0,2.679.905.3.3,0,0,0,.361-.315q-.017-.435-.017-.876c0-.108,0-.217,0-.325a23.054,23.054,0,0,1,8.124-17.256c.21-.179.423-.352.638-.525l.052.037.465.429a.168.168,0,0,0,.273-.061l.536-1.374.6-1.53A.17.17,0,0,0,235.539,300.674Z" transform="translate(-217.11 -298.938)" fill="#637381"/>
</svg>
