<svg xmlns="http://www.w3.org/2000/svg" width="76.31" height="30.661" viewBox="0 0 76.31 30.661">
  <g id="logo_grow_color" data-name="logo / grow / color" transform="translate(-197.48 -291.669)">
    <path id="Trazado_15945" data-name="Trazado 15945" d="M294.535,424.377a.384.384,0,0,1-.392-.392.389.389,0,0,1,.112-.282.375.375,0,0,1,.279-.115.368.368,0,0,1,.274.115.39.39,0,0,1,.112.282.38.38,0,0,1-.112.279A.373.373,0,0,1,294.535,424.377Zm.311,3.336h-.622v-2.829h.622Z" transform="translate(-78.084 -106.565)" fill="#173355"/>
    <path id="Trazado_15946" data-name="Trazado 15946" d="M303.308,430.986v1.861h-.622v-2.829h.622v.374a1.353,1.353,0,0,1,1.037-.449.977.977,0,0,1,.775.311,1.264,1.264,0,0,1,.274.864v1.728h-.622v-1.59q0-.731-.662-.732a.9.9,0,0,0-.455.13A.942.942,0,0,0,303.308,430.986Z" transform="translate(-84.985 -111.698)" fill="#173355"/>
    <path id="Trazado_15947" data-name="Trazado 15947" d="M330.215,430.387v-.369h.622v2.575a1.278,1.278,0,0,1-.467,1.066,1.729,1.729,0,0,1-1.123.369,2.2,2.2,0,0,1-1.106-.254v-.57a1.959,1.959,0,0,0,1.037.276,1.2,1.2,0,0,0,.755-.219.78.78,0,0,0,.282-.657v-.213a1.221,1.221,0,0,1-1.008.443,1.278,1.278,0,0,1-.985-.421,1.469,1.469,0,0,1-.386-1.031,1.429,1.429,0,0,1,.386-1.02,1.278,1.278,0,0,1,.985-.42A1.2,1.2,0,0,1,330.215,430.387Zm-.841,1.9a.972.972,0,0,0,.5-.135.859.859,0,0,0,.34-.348v-.824a.854.854,0,0,0-.337-.354.971.971,0,0,0-.5-.135.883.883,0,0,0-.651.259.918.918,0,0,0,0,1.279A.882.882,0,0,0,329.373,432.288Z" transform="translate(-105.301 -111.698)" fill="#173355"/>
    <path id="Trazado_15948" data-name="Trazado 15948" d="M348.485,432.921a1.524,1.524,0,0,1-1.118-.432,1.5,1.5,0,0,1,0-2.114,1.654,1.654,0,0,1,2.23,0,1.425,1.425,0,0,1,.438,1.054,1.444,1.444,0,0,1-.438,1.06A1.53,1.53,0,0,1,348.485,432.921Zm0-.547a.9.9,0,0,0,.663-.271.982.982,0,0,0,0-1.342.931.931,0,0,0-1.6.668.915.915,0,0,0,.933.945Z" transform="translate(-120.726 -111.698)" fill="#173355"/>
    <path id="Trazado_15949" data-name="Trazado 15949" d="M367.161,432.921a1.525,1.525,0,0,1-1.118-.432,1.5,1.5,0,0,1,0-2.114,1.654,1.654,0,0,1,2.23,0,1.424,1.424,0,0,1,.438,1.054,1.443,1.443,0,0,1-.438,1.06A1.53,1.53,0,0,1,367.161,432.921Zm0-.547a.9.9,0,0,0,.662-.271.982.982,0,0,0,0-1.342.93.93,0,0,0-1.6.668.915.915,0,0,0,.933.945Z" transform="translate(-135.811 -111.698)" fill="#173355"/>
    <path id="Trazado_15950" data-name="Trazado 15950" d="M385.65,428.175a1.262,1.262,0,0,1-.985-.432,1.641,1.641,0,0,1,0-2.114,1.262,1.262,0,0,1,.985-.432,1.2,1.2,0,0,1,1.008.461v-1.59h.622V428.1h-.622v-.386A1.2,1.2,0,0,1,385.65,428.175Zm.167-.547a.912.912,0,0,0,.5-.141.971.971,0,0,0,.346-.366v-.876a.979.979,0,0,0-.349-.36.921.921,0,0,0-.493-.141.854.854,0,0,0-.651.277.921.921,0,0,0-.259.662.949.949,0,0,0,.259.674A.863.863,0,0,0,385.817,427.627Z" transform="translate(-150.896 -106.952)" fill="#173355"/>
    <path id="Trazado_15951" data-name="Trazado 15951" d="M412.929,426.239V428.1h-.622v-4.033h.622v1.579a1.354,1.354,0,0,1,1.037-.449.977.977,0,0,1,.775.311,1.264,1.264,0,0,1,.274.864V428.1h-.622v-1.59a.626.626,0,0,0-.663-.732.9.9,0,0,0-.455.13A.945.945,0,0,0,412.929,426.239Z" transform="translate(-173.537 -106.952)" fill="#173355"/>
    <path id="Trazado_15952" data-name="Trazado 15952" d="M432.374,432.363a.348.348,0,0,0,.167-.041v.473a.614.614,0,0,1-.363.092.54.54,0,0,1-.593-.4,1.32,1.32,0,0,1-1.043.438,1.149,1.149,0,0,1-.76-.253.853.853,0,0,1-.3-.7.807.807,0,0,1,.328-.691,1.286,1.286,0,0,1,.806-.248,1.824,1.824,0,0,1,.9.219V431.1q0-.616-.83-.616a1.663,1.663,0,0,0-.893.254v-.547a2.036,2.036,0,0,1,1.031-.242,1.479,1.479,0,0,1,.954.285.967.967,0,0,1,.354.8v1.054a.3.3,0,0,0,.066.207A.216.216,0,0,0,432.374,432.363Zm-.852-.317V431.7a1.515,1.515,0,0,0-.755-.2.884.884,0,0,0-.487.115.365.365,0,0,0-.176.323.383.383,0,0,0,.164.334.765.765,0,0,0,.446.115,1.117,1.117,0,0,0,.45-.1A1.047,1.047,0,0,0,431.522,432.046Z" transform="translate(-187.411 -111.698)" fill="#173355"/>
    <path id="Trazado_15953" data-name="Trazado 15953" d="M449.229,430.986v1.861h-.622v-2.829h.622v.374a1.353,1.353,0,0,1,1.037-.449.978.978,0,0,1,.775.311,1.265,1.265,0,0,1,.274.864v1.728h-.622v-1.59q0-.731-.663-.732a.9.9,0,0,0-.455.13A.946.946,0,0,0,449.229,430.986Z" transform="translate(-202.861 -111.698)" fill="#173355"/>
    <path id="Trazado_15954" data-name="Trazado 15954" d="M467.334,428.175a1.262,1.262,0,0,1-.985-.432,1.641,1.641,0,0,1,0-2.114,1.261,1.261,0,0,1,.985-.432,1.2,1.2,0,0,1,1.008.461v-1.59h.622V428.1h-.622v-.386A1.2,1.2,0,0,1,467.334,428.175Zm.167-.547a.912.912,0,0,0,.5-.141.971.971,0,0,0,.346-.366v-.876a.979.979,0,0,0-.349-.36.92.92,0,0,0-.493-.141.855.855,0,0,0-.651.277.921.921,0,0,0-.259.662.949.949,0,0,0,.259.674A.864.864,0,0,0,467.5,427.627Z" transform="translate(-216.881 -106.952)" fill="#173355"/>
    <path id="Trazado_15955" data-name="Trazado 15955" d="M486.478,432.921a2.089,2.089,0,0,1-1.181-.288v-.588a1.987,1.987,0,0,0,1.152.34.971.971,0,0,0,.458-.089.272.272,0,0,0,.164-.245.257.257,0,0,0-.173-.225,1.958,1.958,0,0,0-.271-.086l-.351-.086a1.754,1.754,0,0,1-.726-.326.767.767,0,0,1,.092-1.164,1.52,1.52,0,0,1,.881-.222,1.9,1.9,0,0,1,1.043.253v.571a2.068,2.068,0,0,0-1.02-.288.9.9,0,0,0-.432.084.253.253,0,0,0-.15.228q0,.133.179.225.023.011.271.086l.328.069q.968.213.968.893a.726.726,0,0,1-.34.622A1.535,1.535,0,0,1,486.478,432.921Z" transform="translate(-232.499 -111.698)" fill="#173355"/>
    <path id="Trazado_15956" data-name="Trazado 15956" d="M396.752,316.639c0-.129-.01-.258-.019-.385-.007-.11-.017-.217-.029-.324s-.02-.192-.034-.287l-.022-.16q-.018-.128-.044-.256c-.017-.093-.034-.185-.053-.278-.044-.214-.1-.426-.156-.635-.029-.1-.061-.207-.095-.312-.019-.058-.039-.119-.061-.18-.031-.1-.068-.2-.107-.3-.017-.046-.034-.095-.056-.144-.037-.095-.076-.19-.117-.283a9.579,9.579,0,0,0-1.066-1.853c-.039-.053-.078-.1-.119-.156s-.1-.129-.151-.192c-.1-.129-.209-.253-.319-.375-.054-.061-.11-.119-.165-.18s-.112-.117-.17-.175c-.114-.117-.231-.229-.353-.338l-.175-.158c-.022-.017-.044-.036-.066-.056-.063-.054-.129-.11-.195-.161s-.114-.092-.173-.139c-.1-.08-.207-.156-.314-.231-.068-.049-.136-.1-.207-.144-.239-.161-.487-.312-.74-.451a9.634,9.634,0,0,0-11.232,15.461c.085.08.173.161.263.239s.158.136.241.2a.581.581,0,0,0,.061.049c.068.056.136.11.207.163.214.163.436.319.667.465.085.056.173.109.26.161s.168.1.253.146c.207.115.419.222.638.321q.132.062.263.117c.083.034.163.068.243.1l.066.024c.078.029.153.058.231.085s.183.063.275.092.187.058.28.085c.075.022.153.044.231.063s.165.041.248.061c.053.015.107.024.161.034.071.017.139.032.209.044.1.019.192.036.29.051a9.516,9.516,0,0,0,1.524.122,9.9,9.9,0,0,0,1.948-.195,9.628,9.628,0,0,0,5.7-3.581q.208-.278.4-.562a9.608,9.608,0,0,0,1.585-5.3C396.757,316.841,396.755,316.741,396.752,316.639Zm-5.565,2.264s0,.007,0,.01a5.489,5.489,0,1,1,0-.01Z" transform="translate(-145.411 -12.635)" fill="#173355"/>
    <path id="Trazado_15957" data-name="Trazado 15957" d="M321.733,308.726a9.622,9.622,0,0,0-2.641,3.941.533.533,0,0,1-.784.287,4.458,4.458,0,0,0-2.035-.7c-.129-.012-.258-.017-.385-.017a4.621,4.621,0,0,0-4.652,4.62v8.486a.174.174,0,0,1-.175.175H306.4a.174.174,0,0,1-.175-.175v-9.521a9.888,9.888,0,0,1,2.464-6.522,9.531,9.531,0,0,1,13.022-1.324A.486.486,0,0,1,321.733,308.726Z" transform="translate(-87.842 -11.577)" fill="#173355"/>
    <path id="Trazado_15958" data-name="Trazado 15958" d="M493.378,307.308l-4.265,12.4-2.23,6.489a.557.557,0,0,1-.527.376h-2.784a.557.557,0,0,1-.527-.375l-1.7-4.915-1.689,4.914a.557.557,0,0,1-.527.376h-2.793a.557.557,0,0,1-.527-.376l-2.23-6.489-4.265-12.4h3.6a2.309,2.309,0,0,1,2.184,1.558l3.126,9.092,2.354-6.845a.814.814,0,0,1,1.539,0l2.361,6.82,3.125-9.091a2.271,2.271,0,0,1,2.147-1.533Z" transform="translate(-219.588 -12.634)" fill="#173355"/>
    <path id="Trazado_15959" data-name="Trazado 15959" d="M396.094,348.3a9.849,9.849,0,0,1-.925,1.787q-.193.285-.4.562a9.045,9.045,0,0,1-.762.879c-.088.092-.18.183-.273.27a9.34,9.34,0,0,1-1.2.962c-.17.117-.343.226-.521.331q-.135.08-.27.153c-.192.107-.389.2-.592.3a9.234,9.234,0,0,1-2.081.689,9.891,9.891,0,0,1-1.948.195,9.511,9.511,0,0,1-1.524-.122c-.1-.015-.192-.032-.29-.051-.071-.012-.139-.027-.209-.044-.053-.01-.107-.019-.161-.034-.083-.019-.165-.039-.248-.061s-.156-.041-.231-.063c-.092-.027-.187-.056-.28-.085s-.183-.061-.275-.093-.153-.056-.231-.085l-.066-.024c-.08-.032-.161-.066-.244-.1s-.175-.076-.263-.117c-.219-.1-.431-.207-.638-.321-.085-.046-.17-.095-.253-.146s-.175-.1-.26-.161c-.231-.146-.453-.3-.667-.465-.071-.054-.139-.107-.207-.163a.6.6,0,0,1-.061-.049q-.124-.1-.241-.2c-.09-.078-.178-.158-.263-.239-.058-.056-.115-.11-.173-.168a9.831,9.831,0,0,1-1.015-1.183,9.121,9.121,0,0,1-.816-1.337c-.073-.146-.141-.292-.207-.441s-.127-.3-.185-.451c-.051-.134-.1-.268-.144-.4l-.066-.2c-.056-.187-.107-.38-.153-.572a9.708,9.708,0,0,1-.178-.964,9.435,9.435,0,0,1-.085-1.151c0-.046,0-.09,0-.134,0-.131,0-.261.01-.392s.015-.261.024-.39c.017-.226.044-.45.078-.672,0-.017,0-.034.007-.049q.022-.146.051-.292c.017-.088.034-.178.054-.265a.452.452,0,0,1,.012-.056c.019-.085.039-.168.061-.253.049-.195.1-.39.165-.579.007-.019.012-.041.019-.061h.9a3.71,3.71,0,0,1,3.669,3.318.6.6,0,0,0,.01.066,1.62,1.62,0,0,0,.029.192,1.217,1.217,0,0,0,.031.163c.005.022.01.046.017.071.024.11.054.219.085.326.02.061.039.119.061.18s.044.119.068.178.046.117.073.173.046.1.071.151a.424.424,0,0,1,.024.046c.051.1.107.2.165.3l0,0a3.3,3.3,0,0,0,.209.312,1.547,1.547,0,0,0,.112.149c.039.049.078.095.114.141,0,0,.007,0,.007.01.061.071.124.139.19.207a4.7,4.7,0,0,0,.635.545,5.129,5.129,0,0,0,.312.2c.056.034.11.066.166.1.11.058.222.114.336.163.056.027.115.051.173.073s.087.034.131.051l.173.058a.517.517,0,0,1,.056.017c.122.036.243.068.37.095l.088.017c.056.012.115.022.173.029.041.008.08.012.122.017a.3.3,0,0,0,.046,0q.124.014.248.022c.095.007.192.01.287.01a5.139,5.139,0,0,0,.647-.044c.1-.015.207-.034.309-.056a4.593,4.593,0,0,0,.75-.224c.095-.039.187-.08.28-.124h0c.093-.044.183-.09.27-.141.046-.024.09-.051.134-.078a4.877,4.877,0,0,0,.5-.351,4.494,4.494,0,0,0,.448-.411,4.466,4.466,0,0,0,.718-.981s0-.005,0-.01a4.7,4.7,0,0,0,.268-.587.015.015,0,0,0,0-.01,4.377,4.377,0,0,0,.18-.618h.9A3.7,3.7,0,0,1,396.094,348.3Z" transform="translate(-145.406 -40.478)" fill="#1b3d5e"/>
    <path id="Trazado_15960" data-name="Trazado 15960" d="M311.284,345.186c-.024.183-.042.375-.049.574v8.487a.174.174,0,0,1-.175.175H306.4a.174.174,0,0,1-.175-.175v-9.521c0-.046,0-.092,0-.136,0-.063.005-.129.007-.195.005-.131.015-.261.024-.39.017-.226.044-.45.078-.672l.007-.049q.022-.146.051-.292c.017-.088.034-.178.054-.265a.488.488,0,0,1,.012-.056c.02-.085.039-.168.061-.253.049-.195.1-.39.165-.579.007-.019.012-.041.02-.061h.9a3.71,3.71,0,0,1,3.669,3.318.642.642,0,0,0,.01.066C311.282,345.169,311.284,345.179,311.284,345.186Z" transform="translate(-87.842 -40.478)" fill="#1b3d5e"/>
    <path id="Trazado_15961" data-name="Trazado 15961" d="M499.328,327.62c-.229,0-.453.008-.669.027a4.817,4.817,0,0,0-3.995,2.172l-.224.657-.394,1.144-.02-.054-1.008-2.912-.552-1.6-.775-2.257a.785.785,0,0,0-.625-.534l-.032-.007a.748.748,0,0,0-.232,0l-.032.007a.786.786,0,0,0-.625.534l-.775,2.257-.552,1.6-1.008,2.912-.019.054-.394-1.144-.224-.657a4.817,4.817,0,0,0-3.995-2.172c-.217-.019-.441-.027-.669-.027h-1.339l.823,2.393,1.164,3.386,1.461,4.253.528,1.534.012.035c0,.014.006.028.01.042l.192.567c.005.015.015.028.022.043l0,.013a.563.563,0,0,0,.438.37.538.538,0,0,0,.088.007H488.7a.538.538,0,0,0,.088-.007.6.6,0,0,0,.127-.037c.019-.01.041-.02.061-.032s.039-.024.058-.039a.494.494,0,0,0,.053-.046c.017-.017.032-.032.046-.049a.541.541,0,0,0,.034-.049l.007-.015,0-.005a.625.625,0,0,0,.078-.153l.791-2.315.874-2.522,0,0v0l.874,2.522.791,2.315a.623.623,0,0,0,.078.153l0,.005.007.015a.587.587,0,0,0,.034.049c.015.017.029.032.046.049a.493.493,0,0,0,.054.046c.019.015.039.027.058.039s.041.022.061.032a.6.6,0,0,0,.127.037.538.538,0,0,0,.088.007h2.785a.537.537,0,0,0,.088-.007.563.563,0,0,0,.438-.37l0-.013c.006-.015.016-.027.022-.043l.192-.567c0-.014.007-.028.01-.042l.012-.035.528-1.534,1.461-4.253,1.164-3.386.823-2.393Z" transform="translate(-229.164 -26.321)" fill="#1b3d5e"/>
    <path id="Trazado_15962" data-name="Trazado 15962" d="M273.138,323.238h-4.861a.193.193,0,0,1-.154-.309,23.3,23.3,0,0,1,2.806-3.059.137.137,0,0,1,.185,0,9.878,9.878,0,0,1,2.2,3.1A.192.192,0,0,1,273.138,323.238Z" transform="translate(-57.033 -22.753)" fill="#173355"/>
    <circle id="Elipse_4" data-name="Elipse 4" cx="0.394" cy="0.394" r="0.394" transform="translate(213.037 291.669)" fill="#f59f1c"/>
    <circle id="Elipse_5" data-name="Elipse 5" cx="0.394" cy="0.394" r="0.394" transform="translate(204.06 314.488)" fill="#f59f1c"/>
    <path id="Trazado_15963" data-name="Trazado 15963" d="M211.012,307.179a22.5,22.5,0,0,0-4.385,3.927.266.266,0,0,1-.155.088,4.717,4.717,0,0,0-3.874,4.641,4.658,4.658,0,0,0,.211,1.4.247.247,0,0,1-.006.167,22.25,22.25,0,0,0-1.459,5.743.256.256,0,0,1-.42.168A9.834,9.834,0,0,1,210.963,306.7.272.272,0,0,1,211.012,307.179Z" transform="translate(0 -11.577)" fill="#173355"/>
    <path id="Trazado_15964" data-name="Trazado 15964" d="M254.471,349.908a9.835,9.835,0,0,1-9.835,9.835q-.267,0-.53-.014a.447.447,0,0,1-.425-.454,23.109,23.109,0,0,1,.5-4.291.458.458,0,0,1,.449-.36h0a4.712,4.712,0,0,0,4.3-2.768h-3.127a.49.49,0,0,1-.454-.673,22.458,22.458,0,0,1,1.338-2.758.49.49,0,0,1,.425-.245h6.624a.671.671,0,0,1,.668.589A9.9,9.9,0,0,1,254.471,349.908Z" transform="translate(-37.321 -45.65)" fill="#173355"/>
    <path id="Trazado_15965" data-name="Trazado 15965" d="M235.539,300.674l-3.725,1.04a.169.169,0,0,0-.038.309l.6.344c-.258.161-.513.329-.763.5a22.576,22.576,0,0,0-4.407,3.952,22.306,22.306,0,0,0-2.16,2.981c-.019.029-.036.056-.052.085a22.4,22.4,0,0,0-3.154,10.046q-.052.721-.052,1.453a.284.284,0,0,0,0,.04h0v.013l0,0a.392.392,0,0,0,.192.322h0l0,0a.424.424,0,0,0,.049.026l0,0a11.174,11.174,0,0,0,2.679.905.3.3,0,0,0,.361-.315q-.017-.435-.017-.876c0-.108,0-.217,0-.325a23.054,23.054,0,0,1,8.124-17.256c.21-.179.423-.352.638-.525l.052.037.465.429a.168.168,0,0,0,.273-.061l.536-1.374.6-1.53A.17.17,0,0,0,235.539,300.674Z" transform="translate(-19.63 -7.27)" fill="#f59f1c"/>
  </g>
</svg>
