<svg id="logo_hunters_rojo" data-name="logo / hunters rojo" xmlns="http://www.w3.org/2000/svg" width="488.903" height="164.404" viewBox="0 0 488.903 164.404">
  <g id="Grupo_11" data-name="Grupo 11" transform="translate(-176.493 -250.354)">
    <path id="Trazado_1217" data-name="Trazado 1217" d="M176.493,267.043v55.99l16.09,8.144V296.159H224.95v26.873l16.09-7.938V250.354L224.95,259v21.064H192.584v-4.361Z" fill="red"/>
    <path id="Trazado_1218" data-name="Trazado 1218" d="M176.493,257.907v-7.554l16.09,8.594v7.625Z" fill="red"/>
    <path id="Trazado_1219" data-name="Trazado 1219" d="M290.509,281.5v21.673a12.064,12.064,0,0,1-24.128,0V258.463L250.3,250.354v52.817a28.14,28.14,0,0,0,56.281,0V273.354Z" fill="red"/>
    <path id="Trazado_1220" data-name="Trazado 1220" d="M290.495,272.71v-7.625l16.09-8.594v7.554Z" fill="red"/>
    <path id="Trazado_1221" data-name="Trazado 1221" d="M329.317,315.57v7.822l-16.09-8.466v-8.022Z" fill="red"/>
    <path id="Trazado_1222" data-name="Trazado 1222" d="M376.534,250.354v80.88l-16.09-13.653-31.069-26.366-.057-.057v15.278l-16.09-8.665V267.684l.057.057V256.482l16.091,13.653L360.443,296.5V258.947Z" fill="red"/>
    <path id="Trazado_1223" data-name="Trazado 1223" d="M429.722,250.354l-8.295,16.076H405.75V331.3l-19.582-8.266L386.2,264.9V250.354Z" fill="red"/>
    <path id="Trazado_1224" data-name="Trazado 1224" d="M446.24,250.354l-8.223,16.076h-7.525l8.295-16.076Z" fill="red"/>
    <path id="Trazado_1225" data-name="Trazado 1225" d="M459.438,298.7l8.038-16.076h17.929L477.281,298.7Z" fill="red"/>
    <path id="Trazado_1226" data-name="Trazado 1226" d="M480.744,315.1l-4.39,8.58-3.834,7.5h-7.468l3.235-6.371.3-.584,4.646-9.121Z" fill="red"/>
    <path id="Trazado_1227" data-name="Trazado 1227" d="M513.552,250.354l-8.138,16.076H468.331l-4.774,9.449h.029l-7.883,15.56-.83,1.625-11.126,22.021h14.508l7.454.014-8.166,16.076H417.651L458.5,250.354Z" fill="red"/>
    <g id="Grupo_10" data-name="Grupo 10">
      <path id="Trazado_1228" data-name="Trazado 1228" d="M499.428,317.894l9.806-19.312L517.3,282.62h41.274a8.1,8.1,0,0,0,8.1-8.1,8.1,8.1,0,0,0-8.1-8.1H515.063l8.138-16.076h35.43a24.117,24.117,0,0,1,22.376,15.121c.128.313.242.627.356.955a24.114,24.114,0,0,1-22.732,32.152H527.348l-5.686,11.787-3.535,7.525h-18.7Zm4.832,6.7h10.732l-3.093,6.584H492.687l3.35-6.584Z" fill="red"/>
      <path id="Trazado_1229" data-name="Trazado 1229" d="M541.606,305.281l12.987,25.9h17.957l-12.987-25.9Z" fill="red"/>
    </g>
    <path id="Trazado_1230" data-name="Trazado 1230" d="M635.82,282.673A24.094,24.094,0,0,1,657.189,298.7a24.05,24.05,0,0,1,0,16.076c-.114.328-.228.642-.356.955a24.117,24.117,0,0,1-22.375,15.122l-47.438.328L578.882,315.1l55.519-.329a8.092,8.092,0,0,0,5.715-13.824,8.011,8.011,0,0,0-5.7-2.365H613.743v-.028a24.1,24.1,0,0,1-21.477-16.048,24.05,24.05,0,0,1,0-16.076c.114-.328.228-.642.356-.955A24.116,24.116,0,0,1,615,250.354h33.929L640.7,266.43H615.055a8.091,8.091,0,0,0-5.715,13.824,8.006,8.006,0,0,0,5.715,2.366h17.9Z" fill="red"/>
    <path id="Trazado_1231" data-name="Trazado 1231" d="M665.4,250.354l-8.223,16.076h-7.525l8.295-16.076Z" fill="red"/>
  </g>
  <g id="Grupo_12" data-name="Grupo 12" transform="translate(-176.493 -250.354)">
    <path id="Trazado_1232" data-name="Trazado 1232" d="M330.745,400.9c0,8.63-5.166,13.853-12.973,13.853a13.855,13.855,0,0,1,0-27.707c5.759,0,10.218,2.737,12.169,7.961.364.956-.153,1.569-1.148,1.569h-4.037a1.668,1.668,0,0,1-1.608-1.034,5.819,5.819,0,0,0-5.453-3c-3.98,0-7.194,3.541-7.194,8.362,0,4.784,3.176,8.362,7.328,8.362a6.127,6.127,0,0,0,6.219-4.669h-5.53a1.249,1.249,0,0,1-1.377-1.378v-1.932a1.249,1.249,0,0,1,1.377-1.377h10.849C330.248,399.91,330.745,400.253,330.745,400.9Z" fill="red"/>
    <path id="Trazado_1233" data-name="Trazado 1233" d="M350.916,387.05c8.189,0,14.465,6.047,14.465,13.854s-6.276,13.853-14.465,13.853S336.45,408.711,336.45,400.9,342.726,387.05,350.916,387.05Zm0,22.2a8.347,8.347,0,1,0-8.075-8.343A8.068,8.068,0,0,0,350.916,409.247Z" fill="red"/>
    <path id="Trazado_1234" data-name="Trazado 1234" d="M388.328,387.51h13.93a1.249,1.249,0,0,1,1.377,1.378v2.679a1.249,1.249,0,0,1-1.377,1.377h-8.974v5.741h8.055a1.25,1.25,0,0,1,1.378,1.377v2.679a1.25,1.25,0,0,1-1.378,1.378h-8.055v8.8a1.25,1.25,0,0,1-1.378,1.378h-3.578a1.25,1.25,0,0,1-1.378-1.378V388.888A1.25,1.25,0,0,1,388.328,387.51Z" fill="red"/>
    <path id="Trazado_1235" data-name="Trazado 1235" d="M423.632,387.05c8.19,0,14.466,6.047,14.466,13.854s-6.276,13.853-14.466,13.853-14.465-6.046-14.465-13.853S415.443,387.05,423.632,387.05Zm0,22.2a8.347,8.347,0,1,0-8.074-8.343A8.068,8.068,0,0,0,423.632,409.247Z" fill="red"/>
    <path id="Trazado_1236" data-name="Trazado 1236" d="M464.545,396.236a8,8,0,0,1-5.32,7.883l5.052,8.534c.555.957.153,1.645-.938,1.645h-3.865a1.732,1.732,0,0,1-1.626-.957l-4.8-8.381h-1.588v7.96a1.25,1.25,0,0,1-1.377,1.378h-3.522a1.249,1.249,0,0,1-1.377-1.378V388.888a1.249,1.249,0,0,1,1.377-1.378h8.534C460.7,387.51,464.545,391.031,464.545,396.236Zm-13.088,3.96h2.985a3.817,3.817,0,1,0,0-7.634h-2.985Z" fill="red"/>
    <path id="Trazado_1237" data-name="Trazado 1237" d="M492.829,388.888V412.92a1.25,1.25,0,0,1-1.378,1.378h-3.578a1.25,1.25,0,0,1-1.378-1.378V388.888a1.25,1.25,0,0,1,1.378-1.378h3.578A1.25,1.25,0,0,1,492.829,388.888Z" fill="red"/>
    <path id="Trazado_1238" data-name="Trazado 1238" d="M500.961,392.983a1.25,1.25,0,0,1-1.377-1.378v-2.717a1.25,1.25,0,0,1,1.377-1.378h16.744a1.251,1.251,0,0,1,1.378,1.378v2.717a1.251,1.251,0,0,1-1.378,1.378H512.5V412.92a1.25,1.25,0,0,1-1.377,1.378h-3.579a1.249,1.249,0,0,1-1.377-1.378V392.983Z" fill="red"/>
    <path id="Trazado_1239" data-name="Trazado 1239" d="M528.939,407.754a3.512,3.512,0,1,1-3.789,3.5A3.581,3.581,0,0,1,528.939,407.754Zm-1.761-20.244h3.5a1.224,1.224,0,0,1,1.359,1.416l-.708,15.729a1.254,1.254,0,0,1-1.4,1.339h-2.009a1.253,1.253,0,0,1-1.4-1.339l-.708-15.729A1.224,1.224,0,0,1,527.178,387.51Z" fill="red"/>
  </g>
</svg>
