<svg id="logo_iaf" data-name="logo / iaf" xmlns="http://www.w3.org/2000/svg" width="37.401" height="24.175" viewBox="0 0 37.401 24.175">
  <path id="Trazado_15934" data-name="Trazado 15934" d="M182.256,251.52c-.791.009-1.583.006-2.374.006H168.92c-.489,0-.488,0-.488.484v6.016q0,3.811,0,7.623c0,.094-.013.186-.021.28a.292.292,0,0,1-.1-.143q-.411-1.08-.82-2.162-2.234-5.925-4.462-11.852a.33.33,0,0,0-.373-.248q-2.821.013-5.641,0a.343.343,0,0,0-.384.265q-1.881,5.012-3.776,10.018-.939,2.488-1.877,4.975a1.335,1.335,0,0,1-.089.164c-.019-.006-.037-.012-.057-.016v-15.4c-.064,0-.1-.007-.134-.007-1.779,0-3.559,0-5.338,0-.167,0-.205.065-.205.225q0,8.9,0,17.8c0,.082.012.164.018.248.057,0,.1.01.138.01q5.016,0,10.031,0c.306,0,.308,0,.4-.3q.379-1.241.754-2.484c.039-.131.092-.192.244-.19.344.006.689-.024,1.034-.024q2.089-.007,4.177,0c.309,0,.617.013.927.019a.174.174,0,0,1,.186.144c.15.506.308,1.009.463,1.513.135.44.271.879.417,1.351h9.88c.315,0,.327-.012.327-.332V262.74c0-.06,0-.119,0-.179-.006-.168.055-.228.24-.228q2.937.011,5.873,0c.232,0,.464-.015.695-.007.277.009.3,0,.3-.275q0-1.535,0-3.071c0-.311,0-.314-.318-.314h-6.516c-.272,0-.286-.013-.286-.278v-2.642c0-.283.015-.3.287-.3q3.91,0,7.819,0c.141,0,.217-.019.217-.189,0-1.178.013-2.355.022-3.532C182.479,251.587,182.424,251.518,182.256,251.52Zm-20.7,11.33-3.55.007c-.195,0-.222-.036-.167-.219q.9-2.977,1.8-5.954c.024-.077.055-.152.082-.228l.052,0c.08.245.164.491.241.738q.857,2.711,1.711,5.423C161.8,262.835,161.787,262.85,161.561,262.85Z" transform="translate(-145.113 -251.52)" fill="#cbd2d6"/>
  <g id="Grupo_43709" data-name="Grupo 43709" transform="translate(0 19.979)">
    <path id="Trazado_15935" data-name="Trazado 15935" d="M160.726,388.779v1.459c0,.143-.009.286,0,.428a.165.165,0,0,1-.186.2c-.274,0-.547.01-.82,0-.052,0-.116-.077-.144-.134a.43.43,0,0,1-.021-.192q0-1.685,0-3.371c0-.3.012-.314.3-.321.238-.006.476-.012.713,0a.346.346,0,0,1,.229.122c.412.588.815,1.183,1.221,1.775.058.085.125.162.187.242l.045-.016c0-.067.013-.135.013-.2,0-.565,0-1.129,0-1.694,0-.216.021-.235.235-.235.238,0,.476.007.714,0,.158-.006.21.061.21.21,0,.53,0,1.058,0,1.587,0,.672,0,1.343,0,2.016,0,.176-.061.232-.228.228-.268-.007-.536-.007-.8,0a.237.237,0,0,1-.231-.122c-.421-.625-.848-1.247-1.273-1.87a1.413,1.413,0,0,0-.113-.137Z" transform="translate(-157.373 -386.685)" fill="#637381"/>
    <path id="Trazado_15936" data-name="Trazado 15936" d="M250.9,386.842c.338,0,.687-.006,1.037.006.061,0,.134.074.174.132.424.616.844,1.238,1.265,1.857a.356.356,0,0,0,.168.138c0-.061.009-.123.009-.184,0-.565,0-1.131,0-1.7,0-.235.022-.253.256-.254s.476.006.714,0c.141,0,.195.061.2.19,0,.012,0,.024,0,.036q0,1.812,0,3.624c0,.124-.049.19-.179.189-.3,0-.607,0-.91-.006a.251.251,0,0,1-.159-.112c-.417-.6-.827-1.2-1.241-1.808a.673.673,0,0,0-.195-.2,1.443,1.443,0,0,0-.024.177c0,.577-.007,1.154,0,1.732,0,.171-.062.22-.217.219-.256,0-.512-.007-.768,0-.128,0-.177-.057-.177-.165q.007-1.91.018-3.819C250.878,386.886,250.887,386.876,250.9,386.842Z" transform="translate(-235.096 -386.686)" fill="#637381"/>
    <path id="Trazado_15937" data-name="Trazado 15937" d="M194.227,386.958c-.347.063-.683.128-1.022.182a.194.194,0,0,1-.161-.064.778.778,0,0,0-.928-.35.767.767,0,0,0-.62.681,3.211,3.211,0,0,0,.006,1.006.916.916,0,0,0,1.327.65,1.824,1.824,0,0,0,.228-.1.322.322,0,0,0,.164-.411.183.183,0,0,0-.138-.079c-.159-.012-.321-.009-.482-.009-.138,0-.208-.058-.2-.205s.006-.309,0-.464c0-.1.042-.146.135-.146l1.464,0h.281c.01.112.027.2.028.3,0,.4,0,.8,0,1.2a.362.362,0,0,1-.189.345,3.2,3.2,0,0,1-2.525.443,1.565,1.565,0,0,1-1.126-.851,2.424,2.424,0,0,1-.034-2.245,1.709,1.709,0,0,1,1.4-.971,3.887,3.887,0,0,1,1.382.037A1.285,1.285,0,0,1,194.227,386.958Z" transform="translate(-183.444 -385.814)" fill="#637381"/>
    <path id="Trazado_15938" data-name="Trazado 15938" d="M226.316,388.362c0,.241.007.476-.007.71,0,.034-.112.088-.171.088-.5.007-1,.006-1.5.006-.22,0-.242.016-.251.241,0,.125,0,.25,0,.375,0,.146.061.207.219.205.583-.007,1.165,0,1.748,0,.119,0,.179.033.179.156,0,.189,0,.378.007.567,0,.14-.07.177-.2.177-.607-.006-1.212,0-1.819,0-.393,0-.785,0-1.178,0-.138,0-.189-.052-.189-.187q0-1.81-.012-3.621c0-.174.073-.235.25-.234.946.007,1.891,0,2.837,0,.251,0,.26.01.26.262,0,.591,0,.591-.6.591-.434,0-.869,0-1.3,0-.156,0-.21.057-.21.208,0,.534-.019.434.417.44.464.006.928,0,1.391.007A1.117,1.117,0,0,1,226.316,388.362Z" transform="translate(-211.5 -386.687)" fill="#637381"/>
    <path id="Trazado_15939" data-name="Trazado 15939" d="M298.7,387.723v.647h.735c.339,0,.678.006,1.018,0,.134,0,.184.052.184.176,0,.155-.006.309,0,.464s-.052.189-.187.187c-.494,0-.988,0-1.482,0-.265,0-.266,0-.28.257-.006.113,0,.226,0,.339-.006.167.062.223.234.22.571-.01,1.143,0,1.714,0h.208c0,.275.007.54-.009.8,0,.036-.116.089-.179.092-.3.01-.6,0-.893,0H297.7c-.242,0-.242,0-.242-.234,0-1.2,0-2.392,0-3.587,0-.174.071-.214.217-.214q1.473,0,2.946,0c.12,0,.179.048.18.164,0,.161,0,.321,0,.482s-.073.214-.229.211c-.547-.006-1.095,0-1.642,0C298.862,387.723,298.8,387.723,298.7,387.723Z" transform="translate(-274.755 -386.713)" fill="#637381"/>
    <path id="Trazado_15940" data-name="Trazado 15940" d="M282.9,386.962c.394,0,.756-.006,1.116.007.045,0,.125.1.125.147.006,1.236,0,2.474,0,3.71,0,.106-.042.158-.143.158-.35,0-.7,0-1.1,0C282.9,389.649,282.9,388.328,282.9,386.962Z" transform="translate(-262.369 -386.791)" fill="#637381"/>
    <path id="Trazado_15941" data-name="Trazado 15941" d="M146.147,388.9c0,.607,0,1.214,0,1.821,0,.149-.051.2-.195.2-.292-.007-.583,0-.875,0-.109,0-.167-.042-.171-.152,0-.059-.009-.119-.009-.179v-3.392c0-.3,0-.3.293-.311.256,0,.512,0,.768,0,.138,0,.192.061.19.208C146.142,387.7,146.147,388.3,146.147,388.9Z" transform="translate(-144.9 -386.722)" fill="#637381"/>
    <path id="Trazado_15942" data-name="Trazado 15942" d="M356.369,388.907c0,.594,0,1.189,0,1.782,0,.161-.043.242-.222.235-.248-.01-.5,0-.748,0s-.259-.012-.26-.26q-.007-1.122-.012-2.245c0-.417,0-.832,0-1.248,0-.271.015-.277.286-.278h.677c.259,0,.275.016.275.271C356.369,387.742,356.369,388.326,356.369,388.907Z" transform="translate(-323.851 -386.73)" fill="#637381"/>
    <path id="Trazado_15943" data-name="Trazado 15943" d="M329.028,390.753c-.341-.568-.47-1.284-1.157-1.634.107-.048.192-.083.277-.123a1.117,1.117,0,0,0-.226-2.086,2.886,2.886,0,0,0-.531-.048c-.666-.006-1.333,0-2,0h-.222a36.823,36.823,0,0,0,.018,4.036c.33,0,.662,0,1,0,.137,0,.2-.048.192-.2-.012-.4,0-.809,0-1.214,0-.213.048-.244.26-.205s.292.195.378.35c.211.378.411.763.625,1.14a.25.25,0,0,0,.168.122c.381.01.762,0,1.141,0C329.045,390.891,329.077,390.836,329.028,390.753Zm-1.837-2.327c-.217.027-.437.025-.655.043-.126.01-.173-.039-.162-.162.007-.082,0-.167,0-.248.013-.424-.1-.412.421-.427a2.856,2.856,0,0,1,.373.019.389.389,0,0,1,.366.387A.381.381,0,0,1,327.19,388.426Z" transform="translate(-298.311 -386.704)" fill="#637381"/>
    <path id="Trazado_15944" data-name="Trazado 15944" d="M371.432,390.672c-.445-1.187-.893-2.374-1.332-3.563a.254.254,0,0,0-.269-.2q-.509,0-1.016,0a.205.205,0,0,0-.219.159c-.448,1.211-.9,2.42-1.355,3.631-.024.064-.034.132-.061.241.272,0,.513,0,.756,0,.576-.007.457.043.6-.436,0-.016.016-.033.019-.049a.186.186,0,0,1,.213-.164c.238,0,.476-.012.713-.009.183,0,.4-.037.537.051.115.074.125.3.19.461.019.046.068.115.106.115.39.009.778.006,1.2.006C371.476,390.806,371.456,390.738,371.432,390.672Zm-2.551-1.288.414-1.363h.062l.42,1.363Z" transform="translate(-334.112 -386.747)" fill="#637381"/>
  </g>
</svg>
