<svg xmlns="http://www.w3.org/2000/svg" width="74.003" height="20.848" viewBox="0 0 74.003 20.848">
  <g id="logo_leeche" data-name="logo / leeche" transform="translate(0.5 0.5)">
    <g id="Grupo_37893" data-name="Grupo 37893">
      <rect id="Rect치ngulo_15031" data-name="Rect치ngulo 15031" width="73.002" height="20" transform="translate(0)" fill="#cbd2d6" opacity="0"/>
      <path id="Uni칩n_115" data-name="Uni칩n 115" d="M58.979,18a6.232,6.232,0,0,1-1.789-4.51A6.334,6.334,0,0,1,58.9,8.912a5.872,5.872,0,0,1,4.43-1.773,4.945,4.945,0,0,1,3.933,1.63A6.056,6.056,0,0,1,68.68,12.9l-.071,1.119H60.27a3.481,3.481,0,0,0,1.184,2.4,3.667,3.667,0,0,0,2.44.857,4.52,4.52,0,0,0,1.706-.345,4.923,4.923,0,0,0,1.256-.678l.427-.333,1.256,2.094q-.071.072-.213.2a5.4,5.4,0,0,1-.627.44,8.265,8.265,0,0,1-1.007.548,7.761,7.761,0,0,1-1.339.44,6.929,6.929,0,0,1-1.671.2A6.253,6.253,0,0,1,58.979,18ZM61.4,10.126a3.215,3.215,0,0,0-1.031,1.8H65.6a2.552,2.552,0,0,0-.675-1.761,2.114,2.114,0,0,0-1.6-.69A2.878,2.878,0,0,0,61.4,10.126Zm-28.524,7.9a6.169,6.169,0,0,1-1.812-4.534,6.211,6.211,0,0,1,1.8-4.51,6.413,6.413,0,0,1,4.809-1.844,7.755,7.755,0,0,1,1.848.226,4.379,4.379,0,0,1,1.729.881,2.021,2.021,0,0,1,.806,1.63V11.3H39.4v-.666a.777.777,0,0,0-.545-.7,2.813,2.813,0,0,0-1.185-.25A3.372,3.372,0,0,0,35.1,10.756a3.8,3.8,0,0,0-1.007,2.713,3.5,3.5,0,0,0,1.1,2.749,3.853,3.853,0,0,0,2.665.987,4.223,4.223,0,0,0,1.812-.416,5.564,5.564,0,0,0,1.339-.821l.427-.4,1.255,2.094a2.335,2.335,0,0,1-.213.238q-.142.143-.628.524a6.743,6.743,0,0,1-1.031.666,7.123,7.123,0,0,1-1.421.524,6.86,6.86,0,0,1-1.8.238A6.378,6.378,0,0,1,32.871,18.027ZM20.5,18a6.233,6.233,0,0,1-1.788-4.51,6.334,6.334,0,0,1,1.706-4.581,5.871,5.871,0,0,1,4.43-1.773,4.944,4.944,0,0,1,3.933,1.63A6.055,6.055,0,0,1,30.206,12.9l-.071,1.119H21.8a3.479,3.479,0,0,0,1.184,2.4,3.667,3.667,0,0,0,2.44.857,4.521,4.521,0,0,0,1.706-.345,4.923,4.923,0,0,0,1.256-.678l.426-.333,1.256,2.094c-.048.048-.119.115-.213.2a5.461,5.461,0,0,1-.628.44,8.2,8.2,0,0,1-1.007.548,7.742,7.742,0,0,1-1.338.44,6.93,6.93,0,0,1-1.67.2A6.254,6.254,0,0,1,20.5,18Zm2.417-7.877a3.214,3.214,0,0,0-1.031,1.8h5.236a2.551,2.551,0,0,0-.675-1.761,2.115,2.115,0,0,0-1.6-.69A2.877,2.877,0,0,0,22.921,10.126ZM8.162,18a6.232,6.232,0,0,1-1.789-4.51A6.335,6.335,0,0,1,8.078,8.912a5.872,5.872,0,0,1,4.43-1.773,4.944,4.944,0,0,1,3.933,1.63A6.055,6.055,0,0,1,17.863,12.9l-.071,1.119H9.453a3.479,3.479,0,0,0,1.185,2.4,3.667,3.667,0,0,0,2.44.857,4.518,4.518,0,0,0,1.705-.345,4.923,4.923,0,0,0,1.256-.678l.426-.333,1.256,2.094q-.071.072-.213.2a5.365,5.365,0,0,1-.628.44,8.226,8.226,0,0,1-1.007.548,7.754,7.754,0,0,1-1.339.44,6.925,6.925,0,0,1-1.67.2A6.252,6.252,0,0,1,8.162,18Zm2.416-7.877a3.213,3.213,0,0,0-1.03,1.8h5.235a2.549,2.549,0,0,0-.675-1.761,2.114,2.114,0,0,0-1.6-.69A2.878,2.878,0,0,0,10.578,10.126Zm43.39,9.436a1.648,1.648,0,0,1-1.208-.381,1.7,1.7,0,0,1-.379-1.238V12.375a3.294,3.294,0,0,0-.427-1.845A1.671,1.671,0,0,0,50.462,9.9a3.166,3.166,0,0,0-2.037.7,3.716,3.716,0,0,0-1.232,1.821A5.6,5.6,0,0,0,47,13.993v5.569H43.994V5.759a.462.462,0,0,0-.521-.524h-.948V2.665h2.867A1.417,1.417,0,0,1,47,4.259V8.52l-.047,1.023H47a4.252,4.252,0,0,1,1.575-1.69,4.621,4.621,0,0,1,2.571-.714q4.217,0,4.217,4.617v4.736a.462.462,0,0,0,.521.524h.948v2.547Zm-50.888,0a1.685,1.685,0,0,1-1.232-.381,1.7,1.7,0,0,1-.379-1.238V5.759a.462.462,0,0,0-.521-.524H0V2.665H2.867A1.427,1.427,0,0,1,4.478,4.283V16.492A.462.462,0,0,0,5,17.016h.924v2.547ZM66.694,3.169a3.155,3.155,0,1,1,3.154,3.169A3.162,3.162,0,0,1,66.694,3.169Zm2.77,1.214c.058.3.191.445.406.445h.015c.225-.005.354-.155.395-.445h.552a.3.3,0,0,0,.29-.224c.026-.137-.03-.213-.149-.314a.4.4,0,0,1-.124-.237c-.018-.217-.018-.439-.018-.635v-.14a.98.98,0,0,0-.665-.98.117.117,0,0,1-.089-.129c0-.143-.072-.213-.22-.215h-.009c-.146,0-.227.071-.23.2,0,.1-.045.119-.119.148a.981.981,0,0,0-.634.947v.748a.306.306,0,0,1-.167.3.216.216,0,0,0-.124.236.315.315,0,0,0,.1.214.29.29,0,0,0,.2.078l.015,0Z" transform="translate(0 0)" fill="#cbd2d6" stroke="rgba(0,0,0,0)" stroke-miterlimit="10" stroke-width="1"/>
    </g>
  </g>
</svg>
