<svg id="logo_mi_conjunto" data-name="logo / mi conjunto" xmlns="http://www.w3.org/2000/svg" width="86.118" height="30.661" viewBox="0 0 86.118 30.661">
  <g id="Grupo_37523" data-name="Grupo 37523" transform="translate(44.648 20.872)">
    <rect id="Rectángulo_14528" data-name="Rectángulo 14528" width="0.965" height="0.975" transform="translate(29.963 3.021)" fill="#cbd2d6"/>
    <rect id="Rectángulo_14529" data-name="Rectángulo 14529" width="0.965" height="0.975" transform="translate(28.704 3.021)" fill="#cbd2d6"/>
    <rect id="Rectángulo_14530" data-name="Rectángulo 14530" width="0.965" height="0.975" transform="translate(27.446 3.021)" fill="#cbd2d6"/>
    <path id="Trazado_20782" data-name="Trazado 20782" d="M1521.354,443.858h.395v4.227h-.395v-.592a1.335,1.335,0,0,1-1.207.664,1.473,1.473,0,0,1-1.091-.459,1.623,1.623,0,0,1,0-2.246,1.474,1.474,0,0,1,1.091-.459,1.334,1.334,0,0,1,1.207.664Zm-2.014,3.566a1.183,1.183,0,0,0,1.674,0,1.228,1.228,0,0,0,0-1.7,1.182,1.182,0,0,0-1.674,0,1.228,1.228,0,0,0,0,1.7Z" transform="translate(-1512.331 -443.677)" fill="#cbd2d6"/>
    <path id="Trazado_20783" data-name="Trazado 20783" d="M1532.281,444.315a.286.286,0,0,1-.406,0,.294.294,0,0,1,0-.411.287.287,0,0,1,.406,0,.294.294,0,0,1,0,.411Zm-.4,3.744V445.04h.394v3.019Z" transform="translate(-1521.37 -443.651)" fill="#cbd2d6"/>
    <path id="Trazado_20784" data-name="Trazado 20784" d="M1538.985,447.5h.394v2.9a1.273,1.273,0,0,1-.442,1.027,1.583,1.583,0,0,1-1.057.375,1.426,1.426,0,0,1-1.417-.737l.347-.2a1.072,1.072,0,0,0,1.07.549,1.142,1.142,0,0,0,.809-.275.96.96,0,0,0,.3-.74v-.471a1.334,1.334,0,0,1-1.207.664,1.473,1.473,0,0,1-1.091-.459,1.622,1.622,0,0,1,0-2.246,1.474,1.474,0,0,1,1.091-.459,1.334,1.334,0,0,1,1.207.664Zm-2.014,2.358a1.182,1.182,0,0,0,1.673,0,1.228,1.228,0,0,0,0-1.7,1.182,1.182,0,0,0-1.673,0,1.228,1.228,0,0,0,0,1.7Z" transform="translate(-1524.417 -446.114)" fill="#cbd2d6"/>
    <path id="Trazado_20785" data-name="Trazado 20785" d="M1549.912,444.315a.286.286,0,0,1-.406,0,.294.294,0,0,1,0-.411.287.287,0,0,1,.406,0,.294.294,0,0,1,0,.411Zm-.4,3.744V445.04h.395v3.019Z" transform="translate(-1533.455 -443.651)" fill="#cbd2d6"/>
    <path id="Trazado_20786" data-name="Trazado 20786" d="M1555.371,446.23h-.861v1.83a.525.525,0,0,0,.1.353.377.377,0,0,0,.287.109q.191,0,.478-.009v.35a1.44,1.44,0,0,1-.942-.091.76.76,0,0,1-.314-.713v-1.83h-.628v-.387h.628v-.725l.394-.121v.845h.861Z" transform="translate(-1536.242 -444.454)" fill="#cbd2d6"/>
    <path id="Trazado_20787" data-name="Trazado 20787" d="M1563.989,447.5h.394v3.019h-.394v-.592a1.335,1.335,0,0,1-1.207.664,1.472,1.472,0,0,1-1.091-.459,1.623,1.623,0,0,1,0-2.246,1.473,1.473,0,0,1,1.091-.459,1.334,1.334,0,0,1,1.207.664Zm-2.014,2.358a1.182,1.182,0,0,0,1.673,0,1.227,1.227,0,0,0,0-1.7,1.182,1.182,0,0,0-1.673,0,1.227,1.227,0,0,0,0,1.7Z" transform="translate(-1541.556 -446.114)" fill="#cbd2d6"/>
    <path id="Trazado_20788" data-name="Trazado 20788" d="M1574.711,447.7v-4.409h.394V447.7Z" transform="translate(-1550.79 -443.288)" fill="#cbd2d6"/>
    <rect id="Rectángulo_14527" data-name="Rectángulo 14527" width="0.965" height="0.975" transform="translate(2.559 3.021)" fill="#cbd2d6"/>
    <rect id="Rectángulo_14526" data-name="Rectángulo 14526" width="0.965" height="0.975" transform="translate(1.28 3.021)" fill="#cbd2d6"/>
    <rect id="Rectángulo_14525" data-name="Rectángulo 14525" width="0.965" height="0.975" transform="translate(0 3.021)" fill="#cbd2d6"/>
  </g>
  <g id="Grupo_37525" data-name="Grupo 37525" transform="translate(9.572)">
    <path id="Trazado_15733" data-name="Trazado 15733" d="M1550.1,335.651c-.014-.17-.023-.232-.024-.293-.026-1.922-.047-3.844-.077-5.766-.021-1.457-.053-2.914-.081-4.37-.021-1.042-.045-2.083-.066-3.125q-.079-3.842-.155-7.684c-.022-1.067-.048-2.134-.07-3.2-.027-1.331-.046-2.662-.081-3.993-.015-.547-.063-1.093-.1-1.729.4.363.74.651,1.055.959a.46.46,0,0,1,.081.306q-.072,6.333-.156,12.666-.06,4.372-.143,8.744c-.044,2.412-.1,4.823-.15,7.235C1550.138,335.447,1550.126,335.5,1550.1,335.651Z" transform="translate(-1543.676 -305.491)" fill="#cbd2d6"/>
    <path id="Trazado_15734" data-name="Trazado 15734" d="M1556.57,339.13c-.005-.049-.014-.1-.015-.146-.026-1.934-.042-3.867-.078-5.8-.041-2.246-.1-4.491-.148-6.736-.024-1.054-.05-2.107-.073-3.161q-.076-3.35-.15-6.7-.036-1.581-.074-3.162-.037-1.543-.074-3.087c0-.122,0-.244,0-.481.4.381.738.688,1.052,1.015.063.064.054.212.052.32-.021,1.042-.056,2.083-.07,3.126-.031,2.424-.052,4.849-.083,7.273-.019,1.494-.048,2.988-.072,4.482q-.037,2.411-.075,4.822c-.024,1.544-.056,3.089-.072,4.634-.011,1.2,0,2.4,0,3.6Z" transform="translate(-1548.135 -308.47)" fill="#cbd2d6"/>
    <path id="Trazado_15735" data-name="Trazado 15735" d="M1562.7,340.814c-.012-.13-.032-.261-.034-.391-.029-1.532-.052-3.063-.083-4.6q-.072-3.653-.152-7.306c-.045-2.034-.1-4.066-.145-6.1-.052-2.172-.1-4.343-.156-6.516-.015-.6-.063-1.194-.1-1.88.395.355.723.633,1.029.935a.511.511,0,0,1,.1.334q-.03,3.768-.073,7.535c-.016,1.368-.049,2.737-.072,4.1q-.04,2.354-.076,4.708-.035,2.147-.073,4.294-.039,2.3-.077,4.6c0,.092-.013.184-.02.276Z" transform="translate(-1552.303 -311.314)" fill="#cbd2d6"/>
    <path id="Trazado_15736" data-name="Trazado 15736" d="M1531.557,340.814c.012-.13.032-.261.034-.391.029-1.532.052-3.063.083-4.6q.073-3.653.153-7.306.068-3.051.146-6.1c.051-2.172.1-4.343.156-6.516.016-.6.063-1.194.1-1.88-.4.355-.723.633-1.029.935a.507.507,0,0,0-.1.334q.029,3.768.073,7.535c.016,1.368.049,2.737.072,4.1q.04,2.354.076,4.708.035,2.147.074,4.294.039,2.3.077,4.6c0,.092.013.184.02.276Z" transform="translate(-1531.093 -311.314)" fill="#cbd2d6"/>
    <path id="Trazado_15737" data-name="Trazado 15737" d="M1544.143,335.651c.014-.17.023-.232.024-.293.026-1.922.047-3.844.076-5.766.022-1.457.053-2.914.082-4.37.02-1.042.045-2.083.067-3.125q.078-3.842.154-7.684c.022-1.067.047-2.134.069-3.2.027-1.331.047-2.662.082-3.993.014-.547.063-1.093.1-1.729-.4.363-.74.651-1.056.959a.465.465,0,0,0-.082.306q.073,6.333.157,12.666.061,4.372.144,8.744c.043,2.412.1,4.823.15,7.235A2.21,2.21,0,0,0,1544.143,335.651Z" transform="translate(-1539.705 -305.491)" fill="#cbd2d6"/>
    <path id="Trazado_15738" data-name="Trazado 15738" d="M1537.747,339.13a1.285,1.285,0,0,0,.015-.146c.026-1.934.042-3.867.078-5.8.04-2.246.1-4.491.148-6.736q.035-1.58.074-3.161.075-3.35.15-6.7.035-1.581.074-3.162.036-1.543.073-3.087c0-.122,0-.244,0-.481-.4.381-.738.688-1.052,1.015-.063.064-.054.212-.052.32.021,1.042.057,2.083.07,3.126.032,2.424.053,4.849.083,7.273.019,1.494.048,2.988.072,4.482q.038,2.411.076,4.822c.024,1.544.056,3.089.071,4.634.012,1.2,0,2.4,0,3.6Z" transform="translate(-1535.315 -308.47)" fill="#cbd2d6"/>
  </g>
  <g id="Grupo_37526" data-name="Grupo 37526" transform="translate(0 9.565)">
    <path id="Trazado_15739" data-name="Trazado 15739" d="M1515.886,356.335c-.011-.117-.018-.159-.019-.2-.021-1.322-.038-2.645-.063-3.967-.018-1-.042-2-.065-3.007-.017-.717-.036-1.434-.053-2.151q-.062-2.644-.124-5.287c-.018-.734-.038-1.468-.056-2.2-.022-.916-.037-1.831-.065-2.747-.011-.376-.049-.752-.079-1.19.324.25.593.448.846.66a.289.289,0,0,1,.065.21q-.058,4.357-.126,8.714-.048,3.008-.115,6.016c-.035,1.659-.079,3.319-.12,4.978A1.1,1.1,0,0,1,1515.886,356.335Z" transform="translate(-1510.738 -335.584)" fill="#637381"/>
    <path id="Trazado_15740" data-name="Trazado 15740" d="M1521.069,358.734c-.006-.033-.009-.067-.012-.1-.021-1.33-.034-2.661-.063-3.99-.031-1.545-.078-3.09-.119-4.635q-.029-1.088-.059-2.175-.06-2.3-.12-4.609-.028-1.088-.059-2.175-.029-1.062-.059-2.124c0-.084,0-.168,0-.331.322.263.592.474.844.7.05.044.044.146.042.22-.017.717-.045,1.433-.056,2.151-.026,1.668-.042,3.337-.067,5-.015,1.028-.038,2.056-.056,3.083q-.031,1.659-.061,3.318c-.02,1.062-.045,2.125-.058,3.188-.009.826,0,1.651,0,2.477Z" transform="translate(-1514.313 -337.638)" fill="#637381"/>
    <path id="Trazado_15741" data-name="Trazado 15741" d="M1525.981,359.9c-.009-.09-.025-.179-.027-.269-.023-1.054-.042-2.108-.066-3.162q-.058-2.513-.122-5.027c-.036-1.4-.078-2.8-.116-4.2-.041-1.494-.079-2.988-.126-4.482-.012-.411-.05-.821-.079-1.293.317.244.58.436.825.643a.317.317,0,0,1,.083.23q-.023,2.593-.058,5.185c-.013.941-.039,1.883-.058,2.824q-.032,1.621-.06,3.239-.029,1.477-.06,2.954-.032,1.581-.063,3.162c0,.064-.011.127-.016.191Z" transform="translate(-1517.65 -339.598)" fill="#637381"/>
    <path id="Trazado_15742" data-name="Trazado 15742" d="M1501.034,359.9c.009-.09.025-.179.027-.269.023-1.054.042-2.108.066-3.162q.057-2.513.122-5.027.055-2.1.117-4.2c.041-1.494.079-2.988.126-4.482.012-.411.049-.821.079-1.293-.317.244-.579.436-.824.643a.314.314,0,0,0-.083.23q.023,2.593.058,5.185c.013.941.039,1.883.058,2.824q.031,1.621.06,3.239.029,1.477.059,2.954.031,1.581.063,3.162c0,.064.01.127.016.191Z" transform="translate(-1500.663 -339.598)" fill="#637381"/>
    <path id="Trazado_15743" data-name="Trazado 15743" d="M1511.115,356.335c.011-.117.019-.159.02-.2.02-1.322.038-2.645.061-3.967.018-1,.042-2,.066-3.007.016-.717.036-1.434.053-2.151q.063-2.644.124-5.287c.017-.734.038-1.468.055-2.2.022-.916.037-1.831.066-2.747.012-.376.049-.752.079-1.19-.324.25-.593.448-.846.66a.286.286,0,0,0-.065.21q.059,4.357.126,8.714.048,3.008.115,6.016c.035,1.659.079,3.319.12,4.978A1.417,1.417,0,0,0,1511.115,356.335Z" transform="translate(-1507.561 -335.584)" fill="#637381"/>
    <path id="Trazado_15744" data-name="Trazado 15744" d="M1505.99,358.734a.921.921,0,0,0,.012-.1c.02-1.33.034-2.661.063-3.99.031-1.545.078-3.09.118-4.635q.029-1.088.059-2.175.061-2.3.12-4.609.029-1.088.059-2.175l.059-2.124c0-.084,0-.168,0-.331-.322.263-.591.474-.843.7-.05.044-.044.146-.042.22.017.717.045,1.433.056,2.151.026,1.668.042,3.337.066,5,.015,1.028.038,2.056.057,3.083q.031,1.659.06,3.318c.02,1.062.045,2.125.057,3.188.01.826,0,1.651,0,2.477Z" transform="translate(-1504.043 -337.638)" fill="#637381"/>
  </g>
  <g id="Grupo_37527" data-name="Grupo 37527" transform="translate(21.307 9.565)">
    <path id="Trazado_15745" data-name="Trazado 15745" d="M1583.625,356.335c-.011-.117-.019-.159-.019-.2-.021-1.322-.038-2.645-.061-3.967-.018-1-.042-2-.065-3.007q-.026-1.075-.053-2.151-.063-2.644-.126-5.287c-.017-.734-.038-1.468-.055-2.2-.022-.916-.037-1.831-.065-2.747-.012-.376-.05-.752-.08-1.19.324.25.593.448.846.66a.286.286,0,0,1,.065.21q-.059,4.357-.126,8.714-.048,3.008-.115,6.016c-.035,1.659-.079,3.319-.12,4.978A1.4,1.4,0,0,1,1583.625,356.335Z" transform="translate(-1578.477 -335.584)" fill="#637381"/>
    <path id="Trazado_15746" data-name="Trazado 15746" d="M1588.806,358.734c-.006-.033-.01-.067-.012-.1-.021-1.33-.034-2.661-.063-3.99-.031-1.545-.078-3.09-.118-4.635-.019-.725-.04-1.45-.059-2.175q-.06-2.3-.12-4.609-.029-1.088-.059-2.175-.03-1.062-.06-2.124c0-.084,0-.168,0-.331.322.263.592.474.844.7.05.044.043.146.042.22-.017.717-.045,1.433-.056,2.151-.026,1.668-.042,3.337-.067,5-.015,1.028-.038,2.056-.057,3.083q-.031,1.659-.06,3.318c-.02,1.062-.045,2.125-.057,3.188-.009.826,0,1.651,0,2.477Z" transform="translate(-1582.051 -337.638)" fill="#637381"/>
    <path id="Trazado_15747" data-name="Trazado 15747" d="M1593.718,359.9c-.009-.09-.025-.179-.027-.269-.023-1.054-.042-2.108-.066-3.162q-.059-2.513-.123-5.027c-.036-1.4-.078-2.8-.117-4.2-.041-1.494-.079-2.988-.126-4.482-.013-.411-.05-.821-.079-1.293.317.244.58.436.824.643a.315.315,0,0,1,.083.23q-.023,2.593-.058,5.185c-.013.941-.039,1.883-.057,2.824q-.032,1.621-.061,3.239-.028,1.477-.059,2.954-.031,1.581-.062,3.162c0,.064-.011.127-.016.191Z" transform="translate(-1585.387 -339.598)" fill="#637381"/>
    <path id="Trazado_15748" data-name="Trazado 15748" d="M1568.772,359.9c.01-.09.026-.179.027-.269.024-1.054.042-2.108.066-3.162q.059-2.513.122-5.027c.036-1.4.078-2.8.117-4.2.041-1.494.079-2.988.125-4.482.013-.411.05-.821.079-1.293-.316.244-.579.436-.824.643a.319.319,0,0,0-.083.23q.023,2.593.058,5.185c.013.941.039,1.883.058,2.824q.031,1.621.061,3.239.029,1.477.06,2.954.031,1.581.063,3.162c0,.064.01.127.016.191Z" transform="translate(-1568.402 -339.598)" fill="#637381"/>
    <path id="Trazado_15749" data-name="Trazado 15749" d="M1578.854,356.335c.011-.117.019-.159.02-.2.02-1.322.038-2.645.061-3.967.018-1,.043-2,.066-3.007.016-.717.036-1.434.053-2.151q.063-2.644.124-5.287c.018-.734.038-1.468.055-2.2.022-.916.037-1.831.065-2.747.011-.376.05-.752.079-1.19-.323.25-.593.448-.845.66a.286.286,0,0,0-.065.21q.059,4.357.126,8.714.048,3.008.115,6.016c.035,1.659.079,3.319.12,4.978A1.256,1.256,0,0,0,1578.854,356.335Z" transform="translate(-1575.3 -335.584)" fill="#637381"/>
    <path id="Trazado_15750" data-name="Trazado 15750" d="M1573.731,358.734c.006-.033.01-.067.012-.1.02-1.33.033-2.661.063-3.99.031-1.545.078-3.09.119-4.635q.028-1.088.059-2.175.06-2.3.12-4.609.029-1.088.059-2.175.03-1.062.059-2.124c0-.084,0-.168,0-.331-.322.263-.591.474-.843.7-.05.044-.044.146-.042.22.017.717.045,1.433.057,2.151.026,1.668.042,3.337.067,5,.015,1.028.038,2.056.057,3.083q.031,1.659.06,3.318c.02,1.062.046,2.125.057,3.188.009.826,0,1.651,0,2.477Z" transform="translate(-1571.785 -337.638)" fill="#637381"/>
  </g>
  <g id="MI_CONJUNTO" data-name="MI CONJUNTO" transform="translate(34.793 13.665)" style="isolation: isolate">
    <path id="Trazado_20789" data-name="Trazado 20789" d="M1471.335,420.858v4.227h-.687v-3.013l-1.273,2.126h-.083l-1.273-2.132v3.02h-.687v-4.227h.741l1.262,2.113,1.266-2.113Z" transform="translate(-1467.331 -420.779)" fill="#637381"/>
    <path id="Trazado_20790" data-name="Trazado 20790" d="M1486.521,420.858h.687v4.227h-.687Z" transform="translate(-1480.485 -420.779)" fill="#637381"/>
    <path id="Trazado_20791" data-name="Trazado 20791" d="M1505.239,425a2.108,2.108,0,0,1-1.566-.631,2.271,2.271,0,0,1,0-3.122,2.22,2.22,0,0,1,2.615-.359,1.966,1.966,0,0,1,.75.737l-.6.35a1.243,1.243,0,0,0-.487-.5,1.408,1.408,0,0,0-.714-.184,1.441,1.441,0,0,0-1.084.429,1.629,1.629,0,0,0,0,2.174,1.44,1.44,0,0,0,1.084.429,1.419,1.419,0,0,0,.717-.184,1.192,1.192,0,0,0,.484-.5l.6.344a1.942,1.942,0,0,1-.744.74A2.089,2.089,0,0,1,1505.239,425Z" transform="translate(-1491.815 -420.611)" fill="#637381"/>
    <path id="Trazado_20792" data-name="Trazado 20792" d="M1524.277,424.358a2.177,2.177,0,0,1-3.078,0,2.233,2.233,0,0,1,0-3.11,2.178,2.178,0,0,1,3.078,0,2.233,2.233,0,0,1,0,3.11Zm-2.594-.471a1.5,1.5,0,0,0,2.11,0,1.588,1.588,0,0,0,0-2.168,1.5,1.5,0,0,0-2.11,0,1.589,1.589,0,0,0,0,2.168Z" transform="translate(-1503.823 -420.611)" fill="#637381"/>
    <path id="Trazado_20793" data-name="Trazado 20793" d="M1542.668,420.858h.687v4.227h-.538l-1.972-2.868v2.868h-.687v-4.227h.524l1.986,2.888Z" transform="translate(-1517.25 -420.779)" fill="#637381"/>
    <path id="Trazado_20794" data-name="Trazado 20794" d="M1557.367,425.164a1.359,1.359,0,0,1-1.345-.773l.592-.351a.757.757,0,0,0,.759.447.789.789,0,0,0,.553-.178.651.651,0,0,0,.194-.5v-2.947h.688V423.8a1.262,1.262,0,0,1-.407,1.006A1.519,1.519,0,0,1,1557.367,425.164Z" transform="translate(-1528.124 -420.779)" fill="#637381"/>
    <path id="Trazado_20795" data-name="Trazado 20795" d="M1573.8,424.762a1.823,1.823,0,0,1-2.283,0,1.384,1.384,0,0,1-.443-1.078v-2.826h.688v2.784a.843.843,0,0,0,.224.616,1.1,1.1,0,0,0,1.344,0,.843.843,0,0,0,.224-.616v-2.784h.688v2.826A1.384,1.384,0,0,1,1573.8,424.762Z" transform="translate(-1538.439 -420.779)" fill="#637381"/>
    <path id="Trazado_20796" data-name="Trazado 20796" d="M1589.958,420.858h.687v4.227h-.538l-1.972-2.868v2.868h-.687v-4.227h.524l1.986,2.888Z" transform="translate(-1549.666 -420.779)" fill="#637381"/>
    <path id="Trazado_20797" data-name="Trazado 20797" d="M1606.076,420.858v.664H1604.9v3.563h-.688v-3.563h-1.183v-.664Z" transform="translate(-1560.345 -420.779)" fill="#637381"/>
    <path id="Trazado_20798" data-name="Trazado 20798" d="M1620.417,424.358a2.177,2.177,0,0,1-3.078,0,2.232,2.232,0,0,1,0-3.11,2.178,2.178,0,0,1,3.078,0,2.234,2.234,0,0,1,0,3.11Zm-2.594-.471a1.5,1.5,0,0,0,2.11,0,1.589,1.589,0,0,0,0-2.168,1.5,1.5,0,0,0-2.11,0,1.588,1.588,0,0,0,0,2.168Z" transform="translate(-1569.722 -420.611)" fill="#637381"/>
  </g>
</svg>
