<svg xmlns="http://www.w3.org/2000/svg" width="61.921" height="33.551" viewBox="0 0 61.921 33.551">
  <g id="logo_smart_milk_color" data-name="logo / smart milk / color" transform="translate(-85.039 -164.125)">
    <g id="Grupo_43785" data-name="Grupo 43785" transform="translate(85.039 164.125)">
      <path id="Trazado_20852" data-name="Trazado 20852" d="M102.07,169.431a5.294,5.294,0,0,1-1.443,3.641l-.2.2-2.666,2.679-1,1.008-1.183,1.188-4.786,4.808-1.3,1.306a5.958,5.958,0,0,1-3.185-9.425h0l1.013-1.018h0l3.861-3.878.278-.279,5.367-5.392.083-.082.07-.065A5.31,5.31,0,0,1,102.07,169.431Z" transform="translate(-85.039 -164.125)" fill="#0b3961"/>
      <path id="Trazado_20853" data-name="Trazado 20853" d="M138.871,276.406h0a2.1,2.1,0,0,0,2.969,0l3.91-3.926a2.1,2.1,0,0,0,0-2.962h0a2.1,2.1,0,0,0-2.969,0l-3.91,3.926A2.1,2.1,0,0,0,138.871,276.406Z" transform="translate(-125.34 -243.469)" fill="#0b3961"/>
      <path id="Trazado_20854" data-name="Trazado 20854" d="M96.973,164.125c-.053.047-.1.1-.154.147h0l-5.366,5.39-.279.281-3.861,3.879L86.3,174.841a5.958,5.958,0,0,0,5.876,9.5,7.239,7.239,0,0,0,1.385-.46l.021-.01a7.282,7.282,0,0,0,1.51-.921h0l4.551-4.57a4.759,4.759,0,0,1,.413-.367,5.408,5.408,0,0,1-2.321.592c-.03,0-.059,0-.089,0a4.852,4.852,0,0,1-.651-.045l-.04,0c-.13-.018-.26-.041-.388-.068l-.067-.017a4.863,4.863,0,0,1-.69-.218l-.01,0c-.077-.031-.154-.065-.229-.1h0l.161-.162,1.023-1.027,1-1.008h0l2.655-2.667.012-.011.2-.2a5.311,5.311,0,0,0-3.654-8.947Z" transform="translate(-85.039 -164.125)" fill="#0b3961"/>
      <path id="Trazado_20855" data-name="Trazado 20855" d="M111.607,222.189c-.03,0-.059,0-.089,0a4.829,4.829,0,0,1-.65-.045l-.041-.006c-.131-.018-.26-.04-.388-.067l-.066-.017a4.865,4.865,0,0,1-.69-.218l-.01,0c-.069-.028-.139-.058-.208-.089l-6.105,6.105a5.962,5.962,0,0,0,1.511.194,5.9,5.9,0,0,0,1.177-.117l.066-.014a7.269,7.269,0,0,0,1.319-.447l.021-.01a7.278,7.278,0,0,0,1.565-.966l4.749-4.814A5.422,5.422,0,0,1,111.607,222.189Z" transform="translate(-98.913 -207.708)" fill="#082533"/>
      <path id="Trazado_20856" data-name="Trazado 20856" d="M139.5,298.209a1.327,1.327,0,0,1-.2-.279c.05.074.093.134.127.18.009.014.019.028.029.041Z" transform="translate(-126.127 -265.454)" fill="#0b3961"/>
      <path id="Trazado_20857" data-name="Trazado 20857" d="M126.814,230.413l7.8-7.77,3.02-3.031a4.434,4.434,0,0,0-6.283-6.259L125.725,219a1.817,1.817,0,0,1,1.167-.422,1.779,1.779,0,0,1,1.8,1.763,1.645,1.645,0,0,1-.324,1.029,1.9,1.9,0,0,1-.481.4c-.115.066-.175.107-.3.195a5.512,5.512,0,0,0-2.408,4.56,4.559,4.559,0,0,0,1.149,3.378l.492.506" transform="translate(-115.432 -200.417)" fill="#3990c6"/>
      <path id="Trazado_20858" data-name="Trazado 20858" d="M126.744,240.692l-.225.227A1.747,1.747,0,0,1,126.744,240.692Z" transform="translate(-116.451 -222.108)" fill="#0b3961"/>
    </g>
    <g id="Grupo_43787" data-name="Grupo 43787" transform="translate(111.677 165.252)">
      <g id="Grupo_43786" data-name="Grupo 43786">
        <path id="Trazado_20859" data-name="Trazado 20859" d="M196.245,174.843a1.353,1.353,0,0,0,1.513,1.237c.9,0,1.6-.408,1.705-1.069q.126-.738-.9-1.117l-1.021-.372c-1.285-.456-1.837-1.249-1.645-2.365a2.618,2.618,0,0,1,1.1-1.741,3.581,3.581,0,0,1,2.113-.649,2.222,2.222,0,0,1,2.45,1.921l-1.405.541a1.176,1.176,0,0,0-1.3-1.093,1.3,1.3,0,0,0-1.417,1c-.084.456.192.8.8,1.045l1.021.4c1.405.48,1.885,1.429,1.729,2.377a2.723,2.723,0,0,1-1.189,1.825,3.929,3.929,0,0,1-2.258.66,3.064,3.064,0,0,1-2.005-.636,1.962,1.962,0,0,1-.757-1.645Z" transform="translate(-194.791 -168.767)" fill="#2d2d2d"/>
        <path id="Trazado_20860" data-name="Trazado 20860" d="M228.158,184.573l.589-3.35c.192-1.045-.132-1.609-.853-1.609-.757,0-1.453.6-1.681,1.849l-.553,3.11h-1.477l1.069-6.076h1.477l-.18,1.021a2.333,2.333,0,0,1,1.981-1.153,1.576,1.576,0,0,1,1.705,1.141,2.476,2.476,0,0,1,2.185-1.141c1.537,0,2.09,1.033,1.765,2.846l-.588,3.363h-1.477l.588-3.35c.18-1.045-.132-1.609-.852-1.609s-1.441.6-1.693,1.849l-.54,3.11Z" transform="translate(-217.05 -176.035)" fill="#2d2d2d"/>
        <path id="Trazado_20861" data-name="Trazado 20861" d="M275.5,178.5h1.477l-1.069,6.076h-1.477l.156-.913a2.836,2.836,0,0,1-2.27,1.045,2.3,2.3,0,0,1-1.981-.925,2.878,2.878,0,0,1-.432-2.27,3.953,3.953,0,0,1,1.213-2.245,3.315,3.315,0,0,1,2.329-.9,1.972,1.972,0,0,1,1.885,1.033Zm-2.666,4.971a2.163,2.163,0,0,0,2.149-1.885,1.51,1.51,0,0,0-1.5-1.981,1.856,1.856,0,0,0-1.369.552,2.613,2.613,0,0,0-.72,1.369C271.205,182.628,271.77,183.469,272.838,183.469Z" transform="translate(-251.63 -176.035)" fill="#2d2d2d"/>
        <path id="Trazado_20862" data-name="Trazado 20862" d="M304.287,178.5l-.24,1.345a2.163,2.163,0,0,1,1.909-1.477,1.818,1.818,0,0,1,.5.084L306.2,179.9a1.683,1.683,0,0,0-.673-.12,1.591,1.591,0,0,0-.985.348,2.527,2.527,0,0,0-.816,1.633l-.48,2.81h-1.477l1.069-6.076Z" transform="translate(-275.801 -176.035)" fill="#2d2d2d"/>
        <path id="Trazado_20863" data-name="Trazado 20863" d="M324.77,172.231l-.288,1.621h1.813l-.2,1.129h-1.813l-.565,3.182c-.084.444.072.66.481.66a.7.7,0,0,0,.708-.625,1.172,1.172,0,0,0,0-.5h1.213a1.314,1.314,0,0,1,.012.684,2.074,2.074,0,0,1-2.222,1.681,1.818,1.818,0,0,1-1.357-.48,1.766,1.766,0,0,1-.276-1.621l.528-2.978h-.949l.2-1.129h1.021l.552-1.621Z" transform="translate(-291.013 -171.39)" fill="#2d2d2d"/>
      </g>
    </g>
    <g id="Grupo_43789" data-name="Grupo 43789" transform="translate(111.303 176.341)">
      <g id="Grupo_43788" data-name="Grupo 43788" transform="translate(0)">
        <path id="Trazado_20864" data-name="Trazado 20864" d="M199.158,224.858H197.5l-.768-3.747-.973,3.831h-2.51l2.246-8.406h2.4l1.069,4.779,2.75-4.779h2.4l-.708,8.406H200.9l.348-3.831Z" transform="translate(-193.25 -216.031)" fill="#0b3961"/>
        <path id="Trazado_20865" data-name="Trazado 20865" d="M239.165,223.367l1.1-6.316h2.474l-1.1,6.316Zm2.414-6.7a1.473,1.473,0,0,0,1.585-1.1c.108-.66-.288-1.1-1.189-1.1a1.413,1.413,0,0,0-1.573,1.1C240.294,216.2,240.714,216.667,241.579,216.667Z" transform="translate(-228.021 -214.457)" fill="#0b3961"/>
        <path id="Trazado_20866" data-name="Trazado 20866" d="M258.2,215.4l-1.525,8.682h-2.474l1.525-8.682Z" transform="translate(-239.411 -215.17)" fill="#0b3961"/>
        <path id="Trazado_20867" data-name="Trazado 20867" d="M273.2,215.4l-.865,4.887,1.969-2.522h2.582l-.048.324-2.377,2.606.42,1.069a.676.676,0,0,0,.66.468,1.481,1.481,0,0,0,.672-.192l.445,1.489a3.6,3.6,0,0,1-2.066.684,1.966,1.966,0,0,1-2.113-1.645l-.324-1.261-.48,2.774H269.2l1.525-8.682Z" transform="translate(-250.764 -215.17)" fill="#0b3961"/>
      </g>
    </g>
  </g>
</svg>
