<svg id="logo_smart_milk" data-name="logo / smart milk" xmlns="http://www.w3.org/2000/svg" width="61.921" height="33.387" viewBox="0 0 61.921 33.387">
  <g id="Grupo_43704" data-name="Grupo 43704">
    <path id="Trazado_15918" data-name="Trazado 15918" d="M102.07,169.405a5.255,5.255,0,0,1-1.443,3.623l-.2.2L97.757,175.9l-1,1-1.183,1.182-4.786,4.785-1.3,1.3a5.917,5.917,0,0,1-3.185-9.379h0l1.013-1.013h0l3.861-3.859.278-.278,5.367-5.365.083-.082.07-.064A5.3,5.3,0,0,1,102.07,169.405Z" transform="translate(-85.039 -164.125)" fill="#cbd2d6"/>
    <path id="Trazado_15919" data-name="Trazado 15919" d="M138.871,276.369h0a2.1,2.1,0,0,0,2.969,0l3.91-3.907a2.08,2.08,0,0,0,0-2.948h0a2.1,2.1,0,0,0-2.969,0l-3.91,3.907A2.079,2.079,0,0,0,138.871,276.369Z" transform="translate(-125.34 -243.593)" fill="#cbd2d6"/>
    <path id="Trazado_15920" data-name="Trazado 15920" d="M96.973,164.125c-.053.046-.1.095-.154.146h0l-5.366,5.363-.279.279-3.861,3.86L86.3,174.789a5.883,5.883,0,0,0-1.259,3.645,5.961,5.961,0,0,0,7.135,5.812,7.263,7.263,0,0,0,1.385-.458l.021-.01a7.287,7.287,0,0,0,1.51-.917h0l4.551-4.548a4.755,4.755,0,0,1,.413-.365,5.43,5.43,0,0,1-2.321.59c-.03,0-.059,0-.089,0a4.877,4.877,0,0,1-.651-.044l-.04,0c-.13-.018-.26-.041-.388-.068L96.5,178.4a4.881,4.881,0,0,1-.69-.217l-.01,0c-.077-.031-.154-.064-.229-.1h0l.161-.161,1.023-1.022,1-1h0l2.655-2.654.012-.011.2-.2a5.279,5.279,0,0,0-3.654-8.9Z" transform="translate(-85.039 -164.125)" fill="#cbd2d6"/>
    <path id="Trazado_15921" data-name="Trazado 15921" d="M111.607,222.187c-.03,0-.059,0-.089,0a4.854,4.854,0,0,1-.65-.044l-.041-.006c-.131-.018-.26-.04-.388-.067l-.067-.017a4.877,4.877,0,0,1-.69-.217l-.01,0c-.069-.028-.139-.057-.208-.089l-6.105,6.076a5.988,5.988,0,0,0,1.511.193,5.922,5.922,0,0,0,1.177-.117l.066-.014a7.294,7.294,0,0,0,1.319-.444l.021-.01a7.283,7.283,0,0,0,1.565-.961l4.749-4.791A5.445,5.445,0,0,1,111.607,222.187Z" transform="translate(-98.913 -207.776)" fill="#637381"/>
    <path id="Trazado_15922" data-name="Trazado 15922" d="M139.5,298.208a1.321,1.321,0,0,1-.2-.278c.05.073.093.133.127.179.009.014.019.028.029.041Z" transform="translate(-126.127 -265.612)" fill="#cbd2d6"/>
    <path id="Trazado_15923" data-name="Trazado 15923" d="M126.814,230.324l7.8-7.732,3.02-3.017a4.424,4.424,0,0,0-6.283-6.229l-5.627,5.62a1.822,1.822,0,0,1,1.167-.42,1.775,1.775,0,0,1,1.8,1.754,1.631,1.631,0,0,1-.324,1.024,1.892,1.892,0,0,1-.481.4c-.115.065-.175.107-.3.194a5.478,5.478,0,0,0-2.408,4.538,4.523,4.523,0,0,0,1.149,3.362l.492.5" transform="translate(-115.432 -200.474)" fill="#cbd2d6"/>
    <path id="Trazado_15924" data-name="Trazado 15924" d="M126.744,240.692l-.225.226A1.743,1.743,0,0,1,126.744,240.692Z" transform="translate(-116.451 -222.199)" fill="#cbd2d6"/>
  </g>
  <g id="Grupo_43707" data-name="Grupo 43707" transform="translate(26.264 1.121)">
    <path id="Trazado_15925" data-name="Trazado 15925" d="M196.245,174.814a1.351,1.351,0,0,0,1.513,1.231c.9,0,1.6-.406,1.705-1.063q.126-.735-.9-1.111l-1.021-.371c-1.285-.454-1.837-1.243-1.645-2.354a2.6,2.6,0,0,1,1.1-1.733,3.594,3.594,0,0,1,2.113-.645,2.219,2.219,0,0,1,2.45,1.912l-1.405.538a1.175,1.175,0,0,0-1.3-1.088,1.3,1.3,0,0,0-1.417.992c-.084.454.192.8.8,1.04l1.021.394c1.405.478,1.885,1.422,1.729,2.366a2.709,2.709,0,0,1-1.189,1.817,3.943,3.943,0,0,1-2.258.657,3.074,3.074,0,0,1-2.005-.633,1.948,1.948,0,0,1-.757-1.637Z" transform="translate(-194.417 -168.767)" fill="#cbd2d6"/>
    <path id="Trazado_15926" data-name="Trazado 15926" d="M228.158,184.543l.589-3.334c.192-1.04-.132-1.6-.853-1.6-.757,0-1.453.6-1.681,1.84l-.553,3.1h-1.477l1.069-6.047h1.477l-.18,1.016a2.335,2.335,0,0,1,1.981-1.147,1.576,1.576,0,0,1,1.705,1.135,2.479,2.479,0,0,1,2.185-1.135c1.537,0,2.09,1.028,1.765,2.832l-.588,3.346h-1.477l.588-3.334c.18-1.04-.132-1.6-.852-1.6s-1.441.6-1.693,1.84l-.54,3.1Z" transform="translate(-216.676 -176.047)" fill="#cbd2d6"/>
    <path id="Trazado_15927" data-name="Trazado 15927" d="M275.5,178.5h1.477l-1.069,6.047h-1.477l.156-.908a2.842,2.842,0,0,1-2.27,1.04,2.3,2.3,0,0,1-1.982-.92,2.852,2.852,0,0,1-.432-2.259,3.928,3.928,0,0,1,1.213-2.234,3.325,3.325,0,0,1,2.329-.9,1.974,1.974,0,0,1,1.885,1.028Zm-2.666,4.947a2.16,2.16,0,0,0,2.149-1.876,1.5,1.5,0,0,0-1.5-1.972,1.861,1.861,0,0,0-1.369.55,2.6,2.6,0,0,0-.72,1.362A1.475,1.475,0,0,0,272.838,183.444Z" transform="translate(-251.256 -176.047)" fill="#cbd2d6"/>
    <path id="Trazado_15928" data-name="Trazado 15928" d="M304.287,178.5l-.24,1.338a2.162,2.162,0,0,1,1.909-1.47,1.826,1.826,0,0,1,.5.084l-.264,1.446a1.69,1.69,0,0,0-.673-.12,1.6,1.6,0,0,0-.985.347,2.511,2.511,0,0,0-.816,1.625l-.48,2.8h-1.477l1.069-6.047Z" transform="translate(-275.427 -176.047)" fill="#cbd2d6"/>
    <path id="Trazado_15929" data-name="Trazado 15929" d="M324.77,172.231l-.288,1.613h1.813l-.2,1.123h-1.813l-.565,3.167c-.084.442.072.657.481.657a.7.7,0,0,0,.708-.621,1.161,1.161,0,0,0,0-.5h1.213a1.3,1.3,0,0,1,.012.681,2.072,2.072,0,0,1-2.222,1.673,1.823,1.823,0,0,1-1.357-.478,1.751,1.751,0,0,1-.276-1.613l.528-2.964h-.949l.2-1.123h1.021l.552-1.613Z" transform="translate(-290.638 -171.394)" fill="#cbd2d6"/>
    <path id="Trazado_15930" data-name="Trazado 15930" d="M199.158,224.817H197.5l-.768-3.729-.973,3.812h-2.51l2.246-8.365h2.4l1.069,4.756,2.75-4.756h2.4l-.708,8.365H200.9l.348-3.812Z" transform="translate(-193.25 -204.998)" fill="#cbd2d6"/>
    <path id="Trazado_15931" data-name="Trazado 15931" d="M239.165,223.324l1.1-6.286h2.474l-1.1,6.286Zm2.414-6.668a1.472,1.472,0,0,0,1.585-1.1c.108-.657-.288-1.1-1.189-1.1a1.412,1.412,0,0,0-1.573,1.1C240.294,216.19,240.714,216.656,241.579,216.656Z" transform="translate(-228.021 -203.421)" fill="#cbd2d6"/>
    <path id="Trazado_15932" data-name="Trazado 15932" d="M258.2,215.4l-1.525,8.64h-2.474l1.525-8.64Z" transform="translate(-239.411 -204.135)" fill="#cbd2d6"/>
    <path id="Trazado_15933" data-name="Trazado 15933" d="M273.2,215.4l-.865,4.864,1.969-2.51h2.582l-.048.323-2.377,2.593.42,1.063a.675.675,0,0,0,.66.466,1.486,1.486,0,0,0,.672-.191l.445,1.482a3.614,3.614,0,0,1-2.066.681,1.964,1.964,0,0,1-2.113-1.637l-.324-1.255-.48,2.76H269.2l1.525-8.64Z" transform="translate(-250.764 -204.135)" fill="#cbd2d6"/>
  </g>
</svg>
