<svg id="logo_sudimac" data-name="logo / sudimac" xmlns="http://www.w3.org/2000/svg" width="77" height="25.645" viewBox="0 0 77 25.645">
  <g id="Grupo_43652" data-name="Grupo 43652">
    <path id="Trazado_15728" data-name="Trazado 15728" d="M704.725,150.223h-15.8v-9.9l3.91,2.029v3.91h7.92v-6.979l-7.878-3.595.025-3.978,11.826,5.048Z" transform="translate(-688.922 -124.578)" fill="#cbd2d6"/>
    <path id="Trazado_15729" data-name="Trazado 15729" d="M689.189,78.286h15.8v9.9l-3.91-2.029v-3.91h-7.92v5.94l9.912,4.022v5.828l-13.884-6.286Z" transform="translate(-689.153 -78.286)" fill="#cbd2d6"/>
    <path id="Trazado_15730" data-name="Trazado 15730" d="M718.752,153.655v-1.23l9.937,4.022v5.828l-2.059-.932v-4.093Z" transform="translate(-714.769 -142.525)" fill="#637381"/>
    <path id="Trazado_15731" data-name="Trazado 15731" d="M712.767,208.381l-.973,1.777h-9.006V203.4l2.059,1.065v3.914Z" transform="translate(-700.937 -186.695)" fill="#637381"/>
  </g>
  <g id="Grupo_43656" data-name="Grupo 43656" transform="translate(20.702 5.365)">
    <path id="Trazado_15732" data-name="Trazado 15732" d="M679.646,336.943a.669.669,0,0,0-.128-.112.9.9,0,0,0-.165-.086,1.219,1.219,0,0,0-.2-.058,1.079,1.079,0,0,0-.221-.022.785.785,0,0,0-.5.13.431.431,0,0,0-.159.353.359.359,0,0,0,.075.241.526.526,0,0,0,.236.142q.161.055.41.113a2.9,2.9,0,0,1,.479.139.739.739,0,0,1,.311.217.577.577,0,0,1,.11.371.654.654,0,0,1-.07.311.616.616,0,0,1-.194.219.871.871,0,0,1-.3.13,1.588,1.588,0,0,1-.376.042,1.744,1.744,0,0,1-.386-.042,1.56,1.56,0,0,1-.349-.125,1.386,1.386,0,0,1-.307-.21l.128-.209a.94.94,0,0,0,.167.137,1.356,1.356,0,0,0,.216.115,1.279,1.279,0,0,0,.256.079,1.436,1.436,0,0,0,.284.028.884.884,0,0,0,.485-.113.375.375,0,0,0,.173-.336.371.371,0,0,0-.087-.258.639.639,0,0,0-.264-.159,3.964,3.964,0,0,0-.432-.12,2.962,2.962,0,0,1-.458-.139.637.637,0,0,1-.28-.2.549.549,0,0,1-.094-.334.683.683,0,0,1,.119-.408.736.736,0,0,1,.328-.252,1.254,1.254,0,0,1,.479-.086,1.4,1.4,0,0,1,.32.035,1.178,1.178,0,0,1,.274.1,1.138,1.138,0,0,1,.236.164Z" transform="translate(-667.458 -324.157)" fill="#cbd2d6"/>
    <path id="Trazado_15733" data-name="Trazado 15733" d="M692.889,339.127a1.124,1.124,0,0,1-.52-.11.894.894,0,0,1-.337-.295,1.282,1.282,0,0,1-.181-.419,2.019,2.019,0,0,1-.057-.483v-1.31h.252v1.31a1.862,1.862,0,0,0,.042.395,1.091,1.091,0,0,0,.137.348.689.689,0,0,0,.256.244.952.952,0,0,0,.814,0,.7.7,0,0,0,.256-.247,1.082,1.082,0,0,0,.134-.346,1.9,1.9,0,0,0,.04-.39v-1.31h.256v1.31a2.065,2.065,0,0,1-.059.5,1.182,1.182,0,0,1-.188.417.932.932,0,0,1-.339.285A1.109,1.109,0,0,1,692.889,339.127Z" transform="translate(-677.843 -324.211)" fill="#cbd2d6"/>
    <path id="Trazado_15734" data-name="Trazado 15734" d="M709.587,339.109v-2.115l-.94,1.643h-.161l-.944-1.643v2.115h-.256v-2.6h.263l1.014,1.779,1.02-1.779h.26v2.6Z" transform="translate(-689.437 -324.211)" fill="#cbd2d6"/>
    <path id="Trazado_15735" data-name="Trazado 15735" d="M724.405,339.109v-2.6h.256v2.6Z" transform="translate(-702.25 -324.211)" fill="#cbd2d6"/>
    <path id="Trazado_15736" data-name="Trazado 15736" d="M732.63,336.983v2.126h-.256v-2.6h.212l1.705,2.166v-2.163h.256v2.594h-.238Z" transform="translate(-708.214 -324.211)" fill="#cbd2d6"/>
    <path id="Trazado_15737" data-name="Trazado 15737" d="M747.967,339.109v-2.6h.256v2.6Z" transform="translate(-719.884 -324.211)" fill="#cbd2d6"/>
    <path id="Trazado_15738" data-name="Trazado 15738" d="M756.835,336.943a.67.67,0,0,0-.128-.112.882.882,0,0,0-.164-.086,1.2,1.2,0,0,0-.2-.058,1.075,1.075,0,0,0-.221-.022.785.785,0,0,0-.5.13.431.431,0,0,0-.159.353.358.358,0,0,0,.075.241.527.527,0,0,0,.236.142q.161.055.41.113a2.9,2.9,0,0,1,.48.139.74.74,0,0,1,.311.217.577.577,0,0,1,.109.371.657.657,0,0,1-.069.311.615.615,0,0,1-.194.219.872.872,0,0,1-.3.13,1.588,1.588,0,0,1-.377.042,1.746,1.746,0,0,1-.386-.042,1.558,1.558,0,0,1-.349-.125,1.386,1.386,0,0,1-.307-.21l.128-.209a.941.941,0,0,0,.166.137,1.378,1.378,0,0,0,.216.115,1.277,1.277,0,0,0,.256.079,1.436,1.436,0,0,0,.284.028.884.884,0,0,0,.485-.113.375.375,0,0,0,.174-.336.369.369,0,0,0-.088-.258.637.637,0,0,0-.264-.159,3.943,3.943,0,0,0-.431-.12,2.962,2.962,0,0,1-.458-.139.64.64,0,0,1-.28-.2.549.549,0,0,1-.093-.334.682.682,0,0,1,.119-.408.737.737,0,0,1,.328-.252,1.252,1.252,0,0,1,.479-.086,1.4,1.4,0,0,1,.32.035,1.188,1.188,0,0,1,.274.1,1.144,1.144,0,0,1,.236.164Z" transform="translate(-725.228 -324.157)" fill="#cbd2d6"/>
    <path id="Trazado_15739" data-name="Trazado 15739" d="M770.174,336.738h-.926v2.371h-.256v-2.371h-.926v-.227h2.108Z" transform="translate(-734.926 -324.211)" fill="#cbd2d6"/>
    <path id="Trazado_15740" data-name="Trazado 15740" d="M782.35,339.109v-2.6h1.1a.676.676,0,0,1,.307.07.792.792,0,0,1,.244.188.884.884,0,0,1,.161.263.8.8,0,0,1,.057.295.877.877,0,0,1-.071.351.775.775,0,0,1-.2.278.664.664,0,0,1-.306.15l.636,1h-.289l-.611-.958h-.768v.958Zm.256-1.185h.849a.435.435,0,0,0,.267-.084.553.553,0,0,0,.176-.221.7.7,0,0,0,.062-.291.61.61,0,0,0-.071-.291.6.6,0,0,0-.19-.216.453.453,0,0,0-.265-.082h-.827Z" transform="translate(-745.617 -324.211)" fill="#cbd2d6"/>
    <path id="Trazado_15741" data-name="Trazado 15741" d="M796.745,339.073a1.115,1.115,0,0,1-.5-.11,1.192,1.192,0,0,1-.384-.3,1.393,1.393,0,0,1-.249-.424,1.378,1.378,0,0,1-.088-.485,1.368,1.368,0,0,1,.349-.917,1.262,1.262,0,0,1,.39-.293,1.1,1.1,0,0,1,.483-.108,1.083,1.083,0,0,1,.5.114,1.211,1.211,0,0,1,.382.3,1.447,1.447,0,0,1,.247.424,1.374,1.374,0,0,1,0,.975,1.379,1.379,0,0,1-.256.421,1.214,1.214,0,0,1-.388.291A1.11,1.11,0,0,1,796.745,339.073Zm-.962-1.317a1.213,1.213,0,0,0,.07.408,1.112,1.112,0,0,0,.2.347.965.965,0,0,0,.305.242.9.9,0,0,0,.79,0,.966.966,0,0,0,.3-.249,1.113,1.113,0,0,0,.192-.349,1.211,1.211,0,0,0,.066-.4,1.2,1.2,0,0,0-.069-.406,1.12,1.12,0,0,0-.2-.347.954.954,0,0,0-.305-.242.9.9,0,0,0-.785,0,.948.948,0,0,0-.3.247,1.156,1.156,0,0,0-.194.349A1.2,1.2,0,0,0,795.783,337.755Z" transform="translate(-755.479 -324.157)" fill="#cbd2d6"/>
    <path id="Trazado_15742" data-name="Trazado 15742" d="M812.394,336.943a.669.669,0,0,0-.128-.112.9.9,0,0,0-.165-.086,1.216,1.216,0,0,0-.2-.058,1.075,1.075,0,0,0-.221-.022.785.785,0,0,0-.5.13.431.431,0,0,0-.159.353.359.359,0,0,0,.075.241.526.526,0,0,0,.236.142q.161.055.41.113a2.9,2.9,0,0,1,.479.139.738.738,0,0,1,.311.217.575.575,0,0,1,.11.371.655.655,0,0,1-.07.311.617.617,0,0,1-.194.219.869.869,0,0,1-.3.13,1.587,1.587,0,0,1-.377.042,1.745,1.745,0,0,1-.386-.042,1.56,1.56,0,0,1-.349-.125,1.385,1.385,0,0,1-.307-.21l.128-.209a.944.944,0,0,0,.167.137,1.362,1.362,0,0,0,.216.115,1.276,1.276,0,0,0,.256.079,1.435,1.435,0,0,0,.284.028.885.885,0,0,0,.485-.113.375.375,0,0,0,.173-.336.369.369,0,0,0-.087-.258.638.638,0,0,0-.264-.159,3.96,3.96,0,0,0-.432-.12,2.954,2.954,0,0,1-.458-.139.638.638,0,0,1-.28-.2.55.55,0,0,1-.094-.334.683.683,0,0,1,.119-.408.736.736,0,0,1,.328-.252,1.253,1.253,0,0,1,.479-.086,1.4,1.4,0,0,1,.32.035,1.183,1.183,0,0,1,.274.1,1.14,1.14,0,0,1,.236.164Z" transform="translate(-766.81 -324.157)" fill="#cbd2d6"/>
    <path id="Trazado_15743" data-name="Trazado 15743" d="M641.265,289.91a2.091,2.091,0,0,0-1.441-.617,1.072,1.072,0,0,0-.836.3.768.768,0,0,0-.219.54.6.6,0,0,0,.193.476,3.447,3.447,0,0,0,1.081.489l.643.245a3.444,3.444,0,0,1,1.171.656,2.141,2.141,0,0,1,.63,1.6,3.075,3.075,0,0,1-.759,2.123,3.326,3.326,0,0,1-2.432.875,3.639,3.639,0,0,1-1.7-.36,5.456,5.456,0,0,1-1.261-.939l1.029-1.415a5.241,5.241,0,0,0,.8.656,1.991,1.991,0,0,0,1.081.309,1.371,1.371,0,0,0,.9-.3.887.887,0,0,0,.309-.695.757.757,0,0,0-.3-.618,4.2,4.2,0,0,0-1-.476l-.707-.244a2.892,2.892,0,0,1-1.2-.682,2.11,2.11,0,0,1-.515-1.493,2.638,2.638,0,0,1,.746-1.93,2.764,2.764,0,0,1,2.123-.785,4.15,4.15,0,0,1,2.548.849Z" transform="translate(-636.337 -287.62)" fill="#cbd2d6"/>
    <path id="Trazado_15744" data-name="Trazado 15744" d="M674.232,293.47a3.64,3.64,0,0,1-.952,2.714,4.151,4.151,0,0,1-5.352,0,3.64,3.64,0,0,1-.952-2.714v-5.083h1.981v5.031a2.025,2.025,0,0,0,.45,1.441,1.815,1.815,0,0,0,2.393,0,2.026,2.026,0,0,0,.45-1.441v-5.031h1.981Z" transform="translate(-659.268 -288.194)" fill="#cbd2d6"/>
    <path id="Trazado_15745" data-name="Trazado 15745" d="M706.52,288.387a4.523,4.523,0,0,1,3.384,1.184,4.483,4.483,0,0,1,.065,6.112,4.626,4.626,0,0,1-3.384,1.287h-2.779v-8.582Zm-.733,6.909h.528a3.1,3.1,0,0,0,1.956-.579,2.682,2.682,0,0,0,.836-2.072,2.541,2.541,0,0,0-.707-1.853,2.834,2.834,0,0,0-2.085-.733h-.528Z" transform="translate(-686.833 -288.194)" fill="#cbd2d6"/>
    <path id="Trazado_15746" data-name="Trazado 15746" d="M741.49,288.387v8.582h-1.982v-8.582Z" transform="translate(-713.553 -288.194)" fill="#cbd2d6"/>
    <path id="Trazado_15747" data-name="Trazado 15747" d="M753.934,296.969l1.377-8.582h1.647l2.135,5.134,2.136-5.134h1.647l1.377,8.582h-1.981l-.682-5.121-2.149,5.121h-.694l-2.149-5.121-.682,5.121Z" transform="translate(-724.35 -288.194)" fill="#cbd2d6"/>
    <path id="Trazado_15748" data-name="Trazado 15748" d="M803.676,295.348h-3.242l-.656,1.621h-2.059l3.461-8.582h1.814l3.384,8.582H804.32Zm-.541-1.518-1.055-2.882-1.068,2.882Z" transform="translate(-757.12 -288.194)" fill="#cbd2d6"/>
    <path id="Trazado_15749" data-name="Trazado 15749" d="M840.483,296.125a3.988,3.988,0,0,1-1.892.463,4.6,4.6,0,0,1-3.371-1.248,4.6,4.6,0,0,1,0-6.485,4.557,4.557,0,0,1,3.2-1.235,5.107,5.107,0,0,1,2.059.476v2.29a2.72,2.72,0,0,0-2.007-.913,2.408,2.408,0,0,0-1.75.669,2.75,2.75,0,0,0-.811,1.982,2.511,2.511,0,0,0,2.6,2.612,2.706,2.706,0,0,0,1.969-.888Z" transform="translate(-784.186 -287.62)" fill="#cbd2d6"/>
  </g>
</svg>
