<svg id="logo_mi_vecino_color" data-name="logo / mi vecino / color" xmlns="http://www.w3.org/2000/svg" width="80" height="27.311" viewBox="0 0 80 27.311">
  <path id="Trazado_15750" data-name="Trazado 15750" d="M225.071,180.313a2.627,2.627,0,1,1,0-3.614,1.122,1.122,0,0,0,.825.336h0a1.172,1.172,0,0,0,.861-1.966,4.967,4.967,0,1,0-.019,6.9,1.174,1.174,0,0,0-.842-1.991h0A1.114,1.114,0,0,0,225.071,180.313Z" transform="translate(-176.658 -170.636)" fill="#1c2957"/>
  <path id="Trazado_15751" data-name="Trazado 15751" d="M310.251,227.49a2.1,2.1,0,1,0,2.1,2.1A2.1,2.1,0,0,0,310.251,227.49Zm0,3.111a1.009,1.009,0,1,1,1.009-1.009A1.009,1.009,0,0,1,310.251,230.6Z" transform="translate(-241.863 -209.745)" fill="#1c2957"/>
  <path id="Trazado_15752" data-name="Trazado 15752" d="M75.309,177.38a1.416,1.416,0,0,1,1.284-1.438,1.375,1.375,0,0,1,1.438,1.375v4.777a1.375,1.375,0,0,0,1.375,1.361h0a1.359,1.359,0,0,0,1.375-1.361V177.76h0v-.619a.682.682,0,0,0-.022-.121c-.006-.041-.019-.118-.03-.176s-.014-.1-.025-.151l-.028-.113v-.025a1.9,1.9,0,0,0-.058-.193c-.017-.06-.041-.124-.061-.182h0c-.017-.038-.03-.08-.047-.116a.069.069,0,0,0,0-.025,2.171,2.171,0,0,0-.1-.217c-.033-.069-.069-.138-.107-.2a.118.118,0,0,0,0-.019c-.022-.039-.044-.072-.066-.107v-.014l-.066-.107a.055.055,0,0,0,0-.022.165.165,0,0,1-.025-.036,1.214,1.214,0,0,0-.1-.129,1.463,1.463,0,0,0-.094-.124c-.03-.038-.058-.074-.088-.107l-.069-.077q-.058-.066-.124-.132l-.187-.179-.083-.072h0l-.138-.113-.041-.03h0l-.017-.014c-.069-.052-.135-.1-.2-.143l-.085-.052c-.066-.041-.135-.083-.206-.118a3.8,3.8,0,0,0-.58-.259h0a4.076,4.076,0,0,0-4.092.693l-.1-.08h0l-.083-.055h0l-.138-.088-.066-.038c-.066-.041-.135-.077-.2-.113l-.085-.041c-.069-.036-.14-.069-.212-.1a2.871,2.871,0,0,0-.275-.107,2.477,2.477,0,0,0-.275-.085h-.022a4.166,4.166,0,0,0-1.375-.231,4.076,4.076,0,0,0-4.084,4.084V182.1a1.375,1.375,0,0,0,1.361,1.361h0a1.375,1.375,0,0,0,1.375-1.361V177.3a1.375,1.375,0,0,1,2.723-.014v4.791a1.375,1.375,0,0,0,1.375,1.375h0a1.375,1.375,0,0,0,1.375-1.375v-4.7Z" transform="translate(-67.13 -170.601)" fill="#1c2957"/>
  <rect id="Rectángulo_16388" data-name="Rectángulo 16388" width="2.723" height="9.703" rx="1.361" transform="translate(14.975 3.141)" fill="#1c2957"/>
  <circle id="Elipse_1" data-name="Elipse 1" cx="1.361" cy="1.361" r="1.361" transform="translate(14.975)" fill="#e0730f"/>
  <rect id="Rectángulo_16389" data-name="Rectángulo 16389" width="2.723" height="9.703" rx="1.361" transform="translate(51.43 3.141)" fill="#1c2957"/>
  <circle id="Elipse_2" data-name="Elipse 2" cx="1.361" cy="1.361" r="1.361" transform="translate(51.427)" fill="#e0730f"/>
  <path id="Trazado_15753" data-name="Trazado 15753" d="M278.523,174.563a5.071,5.071,0,0,0-5.847-.707h0a.781.781,0,0,0-.781-.787h-1.081a.784.784,0,0,0-.784.781v7.976a1.323,1.323,0,0,0,1.323,1.32h0a1.32,1.32,0,0,0,1.323-1.32v-3.721a2.437,2.437,0,0,1,4.86.038v3.669a1.32,1.32,0,0,0,1.323,1.32h0a1.323,1.323,0,0,0,1.323-1.32v-3.5A5.039,5.039,0,0,0,278.523,174.563Z" transform="translate(-214.227 -170.292)" fill="#1c2957"/>
  <path id="Trazado_15754" data-name="Trazado 15754" d="M271.506,227.09a2.156,2.156,0,1,0,2.156,2.156A2.156,2.156,0,0,0,271.506,227.09Zm0,3.19a1.034,1.034,0,1,1,.733-.3,1.037,1.037,0,0,1-.733.3Z" transform="translate(-213.734 -209.456)" fill="#1c2957"/>
  <path id="Trazado_15755" data-name="Trazado 15755" d="M315.655,174.09a4.893,4.893,0,1,0,4.89,4.892A4.893,4.893,0,0,0,315.655,174.09Zm0,7.241A2.351,2.351,0,1,1,318,178.983,2.351,2.351,0,0,1,315.655,181.331Z" transform="translate(-243.755 -171.032)" fill="#1c2957"/>
  <path id="Trazado_15756" data-name="Trazado 15756" d="M255.831,220.23v-2.2a.55.55,0,0,0-.55-.55h0a.567.567,0,0,0-.564.55v2.343a2.153,2.153,0,1,0,0,3.79,1.965,1.965,0,0,0,.3-.2,2.134,2.134,0,0,0,.825-1.65.275.275,0,0,0,0-.047.209.209,0,0,0,0-.041Zm-2.153,3.083a1.037,1.037,0,1,1,1.026-1.185v.3A1.031,1.031,0,0,1,253.677,223.313Z" transform="translate(-200.823 -202.488)" fill="#1c2957"/>
  <path id="Trazado_15757" data-name="Trazado 15757" d="M204.649,228.821a2.156,2.156,0,1,0-2.151,2.321,2.079,2.079,0,0,0,1.009-.25.826.826,0,0,0,.19-.157v.038a.473.473,0,0,0,.418.432.273.273,0,0,0,.066,0,.245.245,0,0,0,.063,0,.465.465,0,0,0,.407-.435v-1.95Zm-1.122.275a1.034,1.034,0,1,1,0-.237A.853.853,0,0,1,203.527,229.1Z" transform="translate(-163.706 -209.267)" fill="#1c2957"/>
  <path id="Trazado_15758" data-name="Trazado 15758" d="M237.909,228.931v-.11a2.156,2.156,0,1,0-2.151,2.321,2.087,2.087,0,0,0,1.009-.25.825.825,0,0,0,.19-.157v.038a.473.473,0,0,0,.418.432.273.273,0,0,0,.066,0,.245.245,0,0,0,.063,0,.465.465,0,0,0,.407-.435v-1.84Zm-1.125.173a1.034,1.034,0,1,1,0-.237A.853.853,0,0,1,236.784,229.1Z" transform="translate(-187.819 -209.267)" fill="#1c2957"/>
  <path id="Trazado_15759" data-name="Trazado 15759" d="M296.583,230.143a1.13,1.13,0,1,1,0-1.554.489.489,0,0,0,.352.143h0a.5.5,0,0,0,.385-.847,2.137,2.137,0,1,0,0,2.973.506.506,0,0,0-.363-.858h0a.479.479,0,0,0-.374.143Z" transform="translate(-231.35 -209.56)" fill="#1c2957"/>
  <path id="Trazado_15760" data-name="Trazado 15760" d="M328.5,229.811a.572.572,0,0,1,.517-.578.55.55,0,0,1,.578.55v1.925a.55.55,0,0,0,.55.55h0a.55.55,0,0,0,.55-.55v-1.741h0v-.187a.5.5,0,0,1,0-.063.275.275,0,0,1,0-.047.133.133,0,0,0-.014-.072.466.466,0,0,0,0-.061v-.047a.21.21,0,0,0-.025-.077.783.783,0,0,1-.025-.074h0a.053.053,0,0,0-.019-.047h0l-.039-.088c-.017-.028-.03-.055-.044-.083h0a.359.359,0,0,0-.027-.041h0l-.025-.044h0a.235.235,0,0,0-.038-.052.385.385,0,0,0-.036-.049l-.036-.044-.027-.03-.049-.052a.951.951,0,0,0-.077-.072.172.172,0,0,0-.033-.03h0l-.058-.044h-.016l-.08-.058-.036-.019-.162-.124a1.622,1.622,0,0,0-.234-.1h0a1.6,1.6,0,0,0-1.1,0,1.65,1.65,0,0,0-.506.275l-.041-.033h0l-.033-.022h0l-.055-.033-.028-.017a.737.737,0,0,0-.08-.044l-.033-.019-.088-.039-.113-.044-.107-.033h0a1.733,1.733,0,0,0-.55-.094,1.706,1.706,0,0,0-.55.094,1.65,1.65,0,0,0-1.1,1.548v1.8a.55.55,0,0,0,.55.55h0a.55.55,0,0,0,.55-.55v-1.925a.55.55,0,1,1,1.1,0v1.925a.55.55,0,0,0,.55.55h0a.55.55,0,0,0,.55-.55v-1.895Z" transform="translate(-254.231 -210.304)" fill="#1c2957"/>
  <rect id="Rectángulo_16390" data-name="Rectángulo 16390" width="1.169" height="4.167" rx="0.584" transform="translate(43.831 17.78)" fill="#1c2957"/>
  <circle id="Elipse_3" data-name="Elipse 3" cx="0.583" cy="0.583" r="0.583" transform="translate(43.834 16.433)" fill="#1c2957"/>
  <rect id="Rectángulo_16391" data-name="Rectángulo 16391" width="1.122" height="6.851" rx="0.561" transform="translate(41.826 15.093)" fill="#1c2957"/>
  <path id="Trazado_15761" data-name="Trazado 15761" d="M287.857,239.008a.586.586,0,0,1-1.155.14.065.065,0,0,1,0-.025.515.515,0,0,1,0-.116.586.586,0,0,1,1.128-.226.031.031,0,0,1,0,.019.386.386,0,0,0,.027.107A.4.4,0,0,1,287.857,239.008Z" transform="translate(-226.311 -217.669)" fill="#e0730f"/>
  <path id="Trazado_15762" data-name="Trazado 15762" d="M307.532,237.252l-.36.1-2.2.605a.22.22,0,0,0-.058.4l.974.608a11.348,11.348,0,0,1-16.227.275.228.228,0,0,0-.314,0,1.859,1.859,0,0,1-.457.33.231.231,0,0,0-.074.349,11.361,11.361,0,0,0,17.893-.311l.729.652a.223.223,0,0,0,.371-.165V237.48a.223.223,0,0,0-.278-.228Z" transform="translate(-227.811 -216.817)" fill="#e0730f"/>
  <path id="Trazado_15763" data-name="Trazado 15763" d="M160.488,166.59a1.482,1.482,0,0,1-.16.657l-4.315,8.526-.391.765a1.319,1.319,0,0,1-.094.187,1.359,1.359,0,0,1-2.376-.061c-.019-.044-.041-.085-.058-.127l-.355-.71,1.631-3.292.014-.022.644-1.268,1.513-2.951,1.221-2.36a1.449,1.449,0,0,1,2.737.657Z" transform="translate(-129.195 -164.552)" fill="#e0730f"/>
  <path id="Trazado_15764" data-name="Trazado 15764" d="M146.064,179.318l-2-4a1.477,1.477,0,0,0-2.8.657,1.455,1.455,0,0,0,.157.663l3.344,6.686a1.287,1.287,0,0,0,.061.124,1.353,1.353,0,0,0,2.373.063,1.483,1.483,0,0,0,.094-.187l.391-.767Z" transform="translate(-120.88 -171.334)" fill="#1c2957"/>
  <path id="Trazado_15765" data-name="Trazado 15765" d="M187.9,178.608a1.3,1.3,0,0,0-1.2.795,2.415,2.415,0,0,1-2.283,1.614,2.622,2.622,0,0,1-.492-.05l1.375-1.579L187.4,177a1.788,1.788,0,0,0-.421-2.714h0a5.025,5.025,0,1,0,2.115,6.136l.044-.124a1.267,1.267,0,0,0,.058-.385,1.306,1.306,0,0,0-1.3-1.306Zm-5.646,1.059a2.379,2.379,0,0,1-.226-1.392,2.423,2.423,0,0,1,2.415-2.082,2.286,2.286,0,0,1,.756.129l-1.471,1.672Z" transform="translate(-148.513 -170.662)" fill="#1c2957"/>
</svg>
